<?xml version="1.0" encoding="UTF-8"?>
<svg version="1.1" xmlns="http://www.w3.org/2000/svg" width="128" height="128">
<path d="M0 0 C4.91103879 3.81969684 7.5435848 6.71191546 9.25 12.75 C10.24 14.235 10.24 14.235 11.25 15.75 C12.02131331 17.75299164 12.69589525 19.77532968 13.37109375 21.8125 C14.69845191 24.73858733 16.3964771 26.32323855 19.25 27.75 C19.70375 28.678125 20.1575 29.60625 20.625 30.5625 C22.04914694 33.76145158 22.04914694 33.76145158 24.3125 35.8125 C26.49065827 37.99065827 27.23908805 39.87278906 28.25 42.75 C28.58 43.08 28.91 43.41 29.25 43.75 C29.36383223 45.20043148 29.40954412 46.65629724 29.42700195 48.11108398 C29.44625481 49.50404945 29.44625481 49.50404945 29.46589661 50.92515564 C29.47328354 51.93856522 29.48067047 52.95197479 29.48828125 53.99609375 C29.496353 55.03637222 29.50442474 56.0766507 29.51274109 57.14845276 C29.5266084 59.36026329 29.53731864 61.57209546 29.54516602 63.78393555 C29.56226924 67.14218998 29.60611868 70.49943186 29.65039062 73.85742188 C29.6605269 76.00780527 29.66904007 78.15819704 29.67578125 80.30859375 C29.69328934 81.30378525 29.71079742 82.29897675 29.72883606 83.32432556 C29.69678294 93.80955776 26.13052944 102.74745733 18.75 110.3125 C17.925 111.116875 17.1 111.92125 16.25 112.75 C15.569375 113.636875 14.88875 114.52375 14.1875 115.4375 C12.23715124 117.76533562 10.95444487 118.5286378 8.25 119.75 C7.22980427 120.7293879 6.22850195 121.72895449 5.25 122.75 C1.64200299 125.15533134 -0.98671167 125.04585557 -5.15551758 125.04052734 C-5.90709641 125.04724457 -6.65867523 125.05396179 -7.43302917 125.06088257 C-9.92026363 125.07989594 -12.40722862 125.08378867 -14.89453125 125.0859375 C-16.62465018 125.09236406 -18.35476801 125.09909231 -20.08488464 125.10610962 C-23.71392332 125.1180914 -27.34286676 125.12178962 -30.97192383 125.12060547 C-35.61581425 125.12040244 -40.25909156 125.14768321 -44.9028368 125.18214989 C-48.47770475 125.20442167 -52.05242535 125.2084429 -55.62735558 125.20738602 C-57.33893633 125.20974238 -59.05052112 125.21856794 -60.76203346 125.23405075 C-63.16055408 125.25371318 -65.55775561 125.24787222 -67.95629883 125.23583984 C-68.65937164 125.24707886 -69.36244446 125.25831787 -70.08682251 125.26989746 C-77.26154469 125.17873255 -81.48408027 121.17739693 -86.625 116.625 C-87.40617187 115.94179687 -88.18734375 115.25859375 -88.9921875 114.5546875 C-90.75 112.75 -90.75 112.75 -90.75 110.75 C-91.61625 110.4715625 -91.61625 110.4715625 -92.5 110.1875 C-95.84256017 108.05197545 -97.4088431 105.39388168 -98.75 101.75 C-99.35394425 97.39836853 -99.35820469 93.0837455 -99.3515625 88.6953125 C-99.36013275 87.43919159 -99.368703 86.18307068 -99.37753296 84.8888855 C-99.38899609 82.23736226 -99.39192243 79.58740248 -99.38134766 76.93603516 C-99.36977169 73.56092895 -99.40360644 70.18802294 -99.450037 66.81328011 C-99.48682405 63.56564387 -99.47913643 60.3181192 -99.4765625 57.0703125 C-99.49498199 55.87004425 -99.51340149 54.669776 -99.53237915 53.43313599 C-99.42769383 43.87072025 -96.41074182 38.53984074 -90 31.6875 C-87.75 29.75 -87.75 29.75 -85.75 29.75 C-85.42 28.76 -85.09 27.77 -84.75 26.75 C-82.6875 26.0625 -82.6875 26.0625 -80.75 25.75 C-80.646875 24.656875 -80.54375 23.56375 -80.4375 22.4375 C-79.70488442 18.50801643 -79.39689752 18.29128565 -76.75 15.75 C-75.79812107 13.94842678 -75.79812107 13.94842678 -75 12 C-72.26529362 6.29918902 -67.78968456 1.02299957 -61.75 -1.25 C-58.7265625 -1.515625 -58.7265625 -1.515625 -55.375 -1.5 C-54.27414063 -1.50515625 -53.17328125 -1.5103125 -52.0390625 -1.515625 C-47.9397131 -1.18456115 -44.28053918 -0.4525665 -41 2.125 C-39.75 3.75 -39.75 3.75 -37.75 7.75 C-33.295 7.255 -33.295 7.255 -28.75 6.75 C-28.75 7.41 -28.75 8.07 -28.75 8.75 C-27.76 8.75 -26.77 8.75 -25.75 8.75 C-25.42 7.76 -25.09 6.77 -24.75 5.75 C-17.22609032 -1.15863669 -9.77241778 -4.44200808 0 0 Z M-65.125 14.4375 C-65.66125 15.200625 -66.1975 15.96375 -66.75 16.75 C-60.29646385 14.69235079 -54.0138737 12.32616518 -47.75 9.75 C-47.75 9.42 -47.75 9.09 -47.75 8.75 C-54.99858402 8.31508496 -60.03338845 8.67593956 -65.125 14.4375 Z M-15.75 8.75 C-12.56237635 10.87508244 -10.48487777 11.2520163 -6.75 11.75 C-6.75 12.41 -6.75 13.07 -6.75 13.75 C-5.1 14.08 -3.45 14.41 -1.75 14.75 C-1.75 13.76 -1.75 12.77 -1.75 11.75 C-6.30491614 9.54600832 -10.77906176 9.16153737 -15.75 8.75 Z M-78.75 18.75 C-77.75 20.75 -77.75 20.75 -77.75 20.75 Z M-79.75 21.75 C-78.75 24.75 -78.75 24.75 -78.75 24.75 Z " fill="#E9BE42" transform="translate(98.75,3.25)"/>
<path d="M0 0 C1.10085937 -0.00515625 2.20171875 -0.0103125 3.3359375 -0.015625 C7.4352869 0.31543885 11.09446082 1.0474335 14.375 3.625 C15.74663622 5.40812708 16.70610535 7.20015808 17.625 9.25 C15.625 11.25 15.625 11.25 11.921875 11.33984375 C9.64561388 11.27783664 7.37239852 11.18738175 5.09765625 11.08398438 C-1.28321377 10.92251384 -5.12869648 12.25365607 -10.0078125 16.58984375 C-10.83023438 17.44707031 -11.65265625 18.30429687 -12.5 19.1875 C-13.32757812 20.04214844 -14.15515625 20.89679687 -15.0078125 21.77734375 C-15.78898437 22.59332031 -16.57015625 23.40929687 -17.375 24.25 C-18.48101563 25.33667969 -18.48101563 25.33667969 -19.609375 26.4453125 C-22.0909435 28.98178296 -23.11266045 31.48171989 -24.25 34.8125 C-25.55020893 37.62961934 -26.89583392 38.46809938 -29.375 40.25 C-33.4097092 45.9359247 -32.14677056 55.65639501 -31.375 62.25 C-29.58432193 68.01420749 -26.44856673 71.95218162 -21.375 75.25 C-20.62734375 75.76820312 -19.8796875 76.28640625 -19.109375 76.8203125 C-14.11195503 79.43324923 -8.85919088 78.92657871 -3.375 78.25 C3.57841136 76.02490836 7.98801746 71.45884877 11.625 65.25 C13.65502545 59.15992364 13.56090717 51.82374471 11.375 45.8125 C10.7975 44.966875 10.22 44.12125 9.625 43.25 C9.26535156 42.69441406 8.90570313 42.13882813 8.53515625 41.56640625 C7.59051951 40.11079163 6.61096275 38.67794605 5.625 37.25 C10.47689673 38.98282026 12.20651262 42.85883557 14.71875 47.09375 C17.36660235 53.39381249 16.0924397 60.85765012 13.625 67 C12.97914056 68.42627293 12.32022807 69.84712908 11.625 71.25 C10.965 71.25 10.305 71.25 9.625 71.25 C9.625 71.91 9.625 72.57 9.625 73.25 C7.25 75.875 7.25 75.875 4.625 78.25 C3.965 78.25 3.305 78.25 2.625 78.25 C2.625 79.24 2.625 80.23 2.625 81.25 C-1.18028391 83.01274181 -4.1910526 83.52134667 -8.375 83.5 C-9.8909375 83.50773437 -9.8909375 83.50773437 -11.4375 83.515625 C-14.4453976 83.24363426 -16.64806793 82.51321118 -19.375 81.25 C-19.375 80.59 -19.375 79.93 -19.375 79.25 C-21.0146875 79.1571875 -21.0146875 79.1571875 -22.6875 79.0625 C-26.375 78.25 -26.375 78.25 -28.125 75.8125 C-28.5375 74.966875 -28.95 74.12125 -29.375 73.25 C-30.365 72.59 -31.355 71.93 -32.375 71.25 C-33.32421875 69.3046875 -33.32421875 69.3046875 -34.0625 67.125 C-34.31386719 66.40054688 -34.56523438 65.67609375 -34.82421875 64.9296875 C-35.00597656 64.37539062 -35.18773437 63.82109375 -35.375 63.25 C-35.705 64.24 -36.035 65.23 -36.375 66.25 C-37.695 66.25 -39.015 66.25 -40.375 66.25 C-40.06715623 69.20888673 -39.75394426 72.16703167 -39.4375 75.125 C-39.30698242 76.38763672 -39.30698242 76.38763672 -39.17382812 77.67578125 C-39.08681641 78.48144531 -38.99980469 79.28710938 -38.91015625 80.1171875 C-38.831604 80.86081543 -38.75305176 81.60444336 -38.67211914 82.37060547 C-38.45862653 84.33446316 -38.45862653 84.33446316 -37.375 86.25 C-36.385 86.25 -35.395 86.25 -34.375 86.25 C-34.95084432 88.63564077 -35.59727595 90.91682784 -36.375 93.25 C-35.055 93.25 -33.735 93.25 -32.375 93.25 C-31.715 93.25 -31.055 93.25 -30.375 93.25 C-29.941875 94.2090625 -29.941875 94.2090625 -29.5 95.1875 C-28.54676549 97.40206079 -28.54676549 97.40206079 -26.375 98.25 C-26.375 99.24 -26.375 100.23 -26.375 101.25 C-24.395 101.58 -22.415 101.91 -20.375 102.25 C-20.705 102.91 -21.035 103.57 -21.375 104.25 C-22.035 103.92 -22.695 103.59 -23.375 103.25 C-22.18976003 104.85414215 -22.18976003 104.85414215 -20.375 106.25 C-17.74929296 106.50069913 -17.74929296 106.50069913 -15.375 106.25 C-15.375 104.93 -15.375 103.61 -15.375 102.25 C-13.89 101.755 -13.89 101.755 -12.375 101.25 C-14.70817216 100.47227595 -16.98935923 99.82584432 -19.375 99.25 C-20.5 93.5 -20.5 93.5 -19.375 91.25 C-16.4375 90.5 -16.4375 90.5 -13.375 90.25 C-12.715 90.91 -12.055 91.57 -11.375 92.25 C-0.81255682 95.84070649 9.89954546 96.68747832 21 96.8125 C22.16321777 96.83908691 23.32643555 96.86567383 24.52490234 96.89306641 C35.53776794 96.84768157 45.93254886 93.15938424 54.625 86.25 C55.615 84.765 55.615 84.765 56.625 83.25 C56.295 82.26 55.965 81.27 55.625 80.25 C56.625 79.25 56.625 79.25 58.47265625 79.15234375 C60.5234375 79.18489583 62.57421875 79.21744792 64.625 79.25 C64.955 81.23 65.285 83.21 65.625 85.25 C64.965 85.25 64.305 85.25 63.625 85.25 C63.625 85.91 63.625 86.57 63.625 87.25 C62.965 87.25 62.305 87.25 61.625 87.25 C61.59805149 89.20825873 61.57862782 91.16662226 61.5625 93.125 C61.55089844 94.21554688 61.53929688 95.30609375 61.52734375 96.4296875 C61.42755697 99.20177546 61.42755697 99.20177546 62.625 101.25 C61.985625 102.013125 61.34625 102.77625 60.6875 103.5625 C58.48267219 106.13246713 58.48267219 106.13246713 57.625 109.25 C64.60647191 105.43856039 70.86338389 99.26143725 73.625 91.6875 C73.955 90.553125 74.285 89.41875 74.625 88.25 C74.955 87.92 75.285 87.59 75.625 87.25 C75.99260731 84.92182036 76.32741581 82.5881615 76.625 80.25 C77.615 79.92 78.605 79.59 79.625 79.25 C80.00718767 77.59385343 80.33895102 75.92542976 80.625 74.25 C80.295 73.92 79.965 73.59 79.625 73.25 C79.52641397 71.7944063 79.49527857 70.33392081 79.5 68.875 C79.49613281 67.68777344 79.49613281 67.68777344 79.4921875 66.4765625 C79.625 64.25 79.625 64.25 80.625 61.25 C80.6536444 59.22033967 80.5608315 57.21476136 80.46484375 55.1875 C80.625 53.25 80.625 53.25 82.625 50.25 C80.975 48.6 79.325 46.95 77.625 45.25 C78.12 44.26 78.12 44.26 78.625 43.25 C78.625 42.59 78.625 41.93 78.625 41.25 C79.615 41.25 80.605 41.25 81.625 41.25 C84.35622076 44.05335165 85.00343366 46.09351886 85.02905273 49.95166016 C85.04807899 51.34428574 85.04807899 51.34428574 85.06748962 52.76504517 C85.06455399 53.76297089 85.06161835 54.76089661 85.05859375 55.7890625 C85.0638356 56.82509613 85.06907745 57.86112976 85.07447815 58.92855835 C85.08090075 61.12244777 85.0795583 63.31637161 85.07104492 65.51025391 C85.06258353 68.84210945 85.0912155 72.17222219 85.12304688 75.50390625 C85.12466039 77.64062449 85.12407848 79.77734574 85.12109375 81.9140625 C85.13232773 82.89984283 85.14356171 83.88562317 85.15513611 84.90127563 C85.051788 95.33782628 81.4709843 104.28286609 74.125 111.8125 C73.3 112.616875 72.475 113.42125 71.625 114.25 C70.944375 115.136875 70.26375 116.02375 69.5625 116.9375 C67.61215124 119.26533562 66.32944487 120.0286378 63.625 121.25 C62.60480427 122.2293879 61.60350195 123.22895449 60.625 124.25 C57.01700299 126.65533134 54.38828833 126.54585557 50.21948242 126.54052734 C49.46790359 126.54724457 48.71632477 126.55396179 47.94197083 126.56088257 C45.45473637 126.57989594 42.96777138 126.58378867 40.48046875 126.5859375 C38.75034982 126.59236406 37.02023199 126.59909231 35.29011536 126.60610962 C31.66107668 126.6180914 28.03213324 126.62178962 24.40307617 126.62060547 C19.75918575 126.62040244 15.11590844 126.64768321 10.4721632 126.68214989 C6.89729525 126.70442167 3.32257465 126.7084429 -0.25235558 126.70738602 C-1.96393633 126.70974238 -3.67552112 126.71856794 -5.38703346 126.73405075 C-7.78555408 126.75371318 -10.18275561 126.74787222 -12.58129883 126.73583984 C-13.28437164 126.74707886 -13.98744446 126.75831787 -14.71182251 126.76989746 C-21.88654469 126.67873255 -26.10908027 122.67739693 -31.25 118.125 C-32.03117187 117.44179687 -32.81234375 116.75859375 -33.6171875 116.0546875 C-35.375 114.25 -35.375 114.25 -35.375 112.25 C-36.24125 111.9715625 -36.24125 111.9715625 -37.125 111.6875 C-40.46756017 109.55197545 -42.0338431 106.89388168 -43.375 103.25 C-43.97894425 98.89836853 -43.98320469 94.5837455 -43.9765625 90.1953125 C-43.98513275 88.93919159 -43.993703 87.68307068 -44.00253296 86.3888855 C-44.01399609 83.73736226 -44.01692243 81.08740248 -44.00634766 78.43603516 C-43.99477169 75.06092895 -44.02860644 71.68802294 -44.075037 68.31328011 C-44.11182405 65.06564387 -44.10413643 61.8181192 -44.1015625 58.5703125 C-44.11998199 57.37004425 -44.13840149 56.169776 -44.15737915 54.93313599 C-44.05269383 45.37072025 -41.03574182 40.03984074 -34.625 33.1875 C-32.375 31.25 -32.375 31.25 -30.375 31.25 C-30.045 30.26 -29.715 29.27 -29.375 28.25 C-27.3125 27.5625 -27.3125 27.5625 -25.375 27.25 C-25.271875 26.156875 -25.16875 25.06375 -25.0625 23.9375 C-24.32988442 20.00801643 -24.02189752 19.79128565 -21.375 17.25 C-20.42312107 15.44842678 -20.42312107 15.44842678 -19.625 13.5 C-15.55587669 5.01744294 -9.47623421 -0.04417825 0 0 Z M-23.375 20.25 C-22.375 22.25 -22.375 22.25 -22.375 22.25 Z M-24.375 23.25 C-23.375 26.25 -23.375 26.25 -23.375 26.25 Z " fill="#F0A73D" transform="translate(43.375,1.75)"/>
<path d="M0 0 C2.05078125 0.03255208 4.1015625 0.06510417 6.15234375 0.09765625 C6.64734375 3.06765625 6.64734375 3.06765625 7.15234375 6.09765625 C6.49234375 6.09765625 5.83234375 6.09765625 5.15234375 6.09765625 C5.15234375 6.75765625 5.15234375 7.41765625 5.15234375 8.09765625 C4.49234375 8.09765625 3.83234375 8.09765625 3.15234375 8.09765625 C3.12539524 10.05591498 3.10597157 12.01427851 3.08984375 13.97265625 C3.07824219 15.06320313 3.06664063 16.15375 3.0546875 17.27734375 C2.95490072 20.04943171 2.95490072 20.04943171 4.15234375 22.09765625 C3.51296875 22.86078125 2.87359375 23.62390625 2.21484375 24.41015625 C0.01001594 26.98012338 0.01001594 26.98012338 -0.84765625 30.09765625 C2.75747778 28.03757966 5.95565387 25.74634215 9.15234375 23.09765625 C8.65734375 25.57265625 8.65734375 25.57265625 8.15234375 28.09765625 C7.49234375 28.09765625 6.83234375 28.09765625 6.15234375 28.09765625 C6.15234375 29.08765625 6.15234375 30.07765625 6.15234375 31.09765625 C7.63734375 31.59265625 7.63734375 31.59265625 9.15234375 32.09765625 C8.82234375 33.08765625 8.49234375 34.07765625 8.15234375 35.09765625 C7.10046875 34.82953125 6.04859375 34.56140625 4.96484375 34.28515625 C3.70671875 34.22328125 2.44859375 34.16140625 1.15234375 34.09765625 C-0.55545598 35.72214868 -2.22316382 37.38985652 -3.84765625 39.09765625 C-7.16015625 39.41015625 -7.16015625 39.41015625 -9.84765625 39.09765625 C-9.84765625 37.77765625 -9.84765625 36.45765625 -9.84765625 35.09765625 C-10.85828125 35.75765625 -11.86890625 36.41765625 -12.91015625 37.09765625 C-16.67701328 39.27406253 -19.49502897 39.25886467 -23.84765625 39.09765625 C-24.61207031 39.42121094 -25.37648437 39.74476562 -26.1640625 40.078125 C-33.3088149 42.79250692 -42.40993447 41.27824701 -49.84765625 40.09765625 C-50.80671875 39.96359375 -51.76578125 39.82953125 -52.75390625 39.69140625 C-58.51521992 38.83576561 -63.76638271 38.03350318 -68.84765625 35.09765625 C-69.78515625 32.91015625 -69.78515625 32.91015625 -69.84765625 31.09765625 C-70.83765625 31.09765625 -71.82765625 31.09765625 -72.84765625 31.09765625 C-73.17765625 28.45765625 -73.50765625 25.81765625 -73.84765625 23.09765625 C-72.85765625 22.76765625 -71.86765625 22.43765625 -70.84765625 22.09765625 C-73.18082841 21.3199322 -75.46201548 20.67350057 -77.84765625 20.09765625 C-78.97265625 14.34765625 -78.97265625 14.34765625 -77.84765625 12.09765625 C-74.91015625 11.34765625 -74.91015625 11.34765625 -71.84765625 11.09765625 C-71.18765625 11.75765625 -70.52765625 12.41765625 -69.84765625 13.09765625 C-59.28521307 16.68836274 -48.57311079 17.53513457 -37.47265625 17.66015625 C-36.30943848 17.68674316 -35.1462207 17.71333008 -33.94775391 17.74072266 C-22.93488831 17.69533782 -12.54010739 14.00704049 -3.84765625 7.09765625 C-3.18765625 6.10765625 -2.52765625 5.11765625 -1.84765625 4.09765625 C-2.34265625 2.61265625 -2.34265625 2.61265625 -2.84765625 1.09765625 C-1.84765625 0.09765625 -1.84765625 0.09765625 0 0 Z " fill="#D7953C" transform="translate(101.84765625,80.90234375)"/>
<path d="M0 0 C4.91103879 3.81969684 7.5435848 6.71191546 9.25 12.75 C10.24 14.235 10.24 14.235 11.25 15.75 C12.02131331 17.75299164 12.69589525 19.77532968 13.37109375 21.8125 C14.69845191 24.73858733 16.3964771 26.32323855 19.25 27.75 C19.70375 28.678125 20.1575 29.60625 20.625 30.5625 C22.18967101 33.63166237 23.70910288 35.47195431 26.25 37.75 C25.7859375 38.8946875 25.7859375 38.8946875 25.3125 40.0625 C24.57106407 41.93789677 23.88771783 43.83684652 23.25 45.75 C24.57 46.41 25.89 47.07 27.25 47.75 C27.25 50.75 27.25 50.75 26.75 52.5 C26.11667816 54.96580061 26.11667816 54.96580061 26.25 58.4375 C26.25 59.530625 26.25 60.62375 26.25 61.75 C25.92 62.08 25.59 62.41 25.25 62.75 C25.15176004 64.22648876 25.12026481 65.70775417 25.125 67.1875 C25.12242188 67.99058594 25.11984375 68.79367188 25.1171875 69.62109375 C25.11421674 71.80397931 25.11421674 71.80397931 26.25 73.75 C25.97057545 75.42654729 25.64171753 77.09608154 25.25 78.75 C23.93 78.75 22.61 78.75 21.25 78.75 C21.29125 79.86375 21.3325 80.9775 21.375 82.125 C21.25 85.75 21.25 85.75 19.25 87.75 C18.940625 88.86375 18.63125 89.9775 18.3125 91.125 C16.72177147 95.63900451 13.92707736 98.76845487 10.75 102.25 C10.01922241 103.06090088 10.01922241 103.06090088 9.27368164 103.88818359 C7.99902435 105.24140522 6.62931789 106.50362841 5.25 107.75 C4.26 107.75 3.27 107.75 2.25 107.75 C2.73662294 105.12223611 3.36969601 103.57045598 4.875 101.3125 C6.58837633 98.11938957 6.05223409 97.1996066 5.25 93.75 C5.43652665 91.04788421 5.84094749 88.43156646 6.25 85.75 C6.91 85.75 7.57 85.75 8.25 85.75 C8.25 85.09 8.25 84.43 8.25 83.75 C8.91 83.75 9.57 83.75 10.25 83.75 C9.59 81.77 8.93 79.79 8.25 77.75 C6.27 77.42 4.29 77.09 2.25 76.75 C2.806875 76.358125 3.36375 75.96625 3.9375 75.5625 C9.94337975 70.85518885 14.75979708 65.4347719 16.25 57.75 C16.58471591 52.42407914 16.49568304 46.94034601 15.25 41.75 C13.30990478 40.04467677 13.30990478 40.04467677 11.25 38.75 C11.12625 38.09 11.0025 37.43 10.875 36.75 C10.565625 35.76 10.565625 35.76 10.25 34.75 C9.30125 34.275625 8.3525 33.80125 7.375 33.3125 C3.76861064 31.50930532 3.26501749 30.10836248 1.25 26.75 C-1.81680799 24.92370206 -1.81680799 24.92370206 -4.75 23.75 C-4.75 23.09 -4.75 22.43 -4.75 21.75 C-5.41 21.646875 -6.07 21.54375 -6.75 21.4375 C-9.8371524 20.73002758 -12.57809258 19.68803658 -15.4921875 18.46875 C-22.39242048 16.27213604 -29.89103667 16.38094864 -37.0625 16.0625 C-38.67801758 15.97258789 -38.67801758 15.97258789 -40.32617188 15.88085938 C-46.91346323 15.58959816 -53.44705054 15.54359117 -59.75 17.75 C-60.08 18.41 -60.41 19.07 -60.75 19.75 C-63.03515625 20.6015625 -63.03515625 20.6015625 -65.8125 21.375 C-67.19115234 21.76558594 -67.19115234 21.76558594 -68.59765625 22.1640625 C-69.30792969 22.35742188 -70.01820312 22.55078125 -70.75 22.75 C-70.19851374 19.09269989 -70.19851374 19.09269989 -68.21533203 17.57739258 C-67.56935059 17.26954834 -66.92336914 16.9617041 -66.2578125 16.64453125 C-65.55269531 16.30099609 -64.84757812 15.95746094 -64.12109375 15.60351562 C-63.37988281 15.25998047 -62.63867188 14.91644531 -61.875 14.5625 C-61.14152344 14.20736328 -60.40804687 13.85222656 -59.65234375 13.48632812 C-54.03695392 10.79114557 -49.01866051 9.46118043 -42.8125 8.75 C-36.72830295 8.05126605 -36.72830295 8.05126605 -30.75 6.75 C-30.09 6.75 -29.43 6.75 -28.75 6.75 C-28.75 7.41 -28.75 8.07 -28.75 8.75 C-27.76 8.75 -26.77 8.75 -25.75 8.75 C-25.42 7.76 -25.09 6.77 -24.75 5.75 C-17.22609032 -1.15863669 -9.77241778 -4.44200808 0 0 Z M-15.75 8.75 C-12.56237635 10.87508244 -10.48487777 11.2520163 -6.75 11.75 C-6.75 12.41 -6.75 13.07 -6.75 13.75 C-5.1 14.08 -3.45 14.41 -1.75 14.75 C-1.75 13.76 -1.75 12.77 -1.75 11.75 C-6.30491614 9.54600832 -10.77906176 9.16153737 -15.75 8.75 Z " fill="#F8C33E" transform="translate(98.75,3.25)"/>
<path d="M0 0 C6.22700499 3.7097051 10.58704577 7.69863732 12.9375 14.75 C13.57771281 22.42205841 13.83254265 29.46252587 8.9375 35.75 C6.77654045 38.04176824 4.50285031 39.92814724 1.9375 41.75 C0.638125 42.678125 0.638125 42.678125 -0.6875 43.625 C-6.85719053 45.68156351 -13.57863601 46.16111998 -19.6953125 43.68359375 C-25.73823355 39.92469201 -30.79076392 34.56520824 -33.0625 27.75 C-33.13187062 25.52181559 -33.14707084 23.29165476 -33.125 21.0625 C-33.11597656 19.88300781 -33.10695313 18.70351563 -33.09765625 17.48828125 C-33.08605469 16.58464844 -33.07445312 15.68101563 -33.0625 14.75 C-32.4025 14.75 -31.7425 14.75 -31.0625 14.75 C-30.7221875 13.203125 -30.7221875 13.203125 -30.375 11.625 C-28.86895154 6.42228714 -25.97536975 2.90154213 -21.32421875 0.1015625 C-14.9807221 -2.52700019 -6.44407005 -2.58330561 0 0 Z " fill="#EDECE2" transform="translate(44.0625,36.25)"/>
<path d="M0 0 C4.92086937 3.10228721 8.18563545 6.67893396 10.875 11.8125 C12.41044048 18.85803386 12.59812825 25.49818358 8.875 31.8125 C5.13534691 37.63106566 0.59639592 41.05589105 -6.125 42.8125 C-13.43552306 43.62478034 -20.37939283 43.1312092 -26.75 39.1875 C-32.01848825 33.91901175 -34.44094686 29.87505878 -34.625 22.25 C-34.27113703 13.96769367 -32.02501785 8.84660917 -26.125 2.8125 C-19.2158749 -2.89503812 -8.28385204 -3.1748684 0 0 Z " fill="#F6F6E8" transform="translate(102.125,36.1875)"/>
<path d="M0 0 C1.10085937 -0.00515625 2.20171875 -0.0103125 3.3359375 -0.015625 C7.4352869 0.31543885 11.09446082 1.0474335 14.375 3.625 C15.74663622 5.40812708 16.70610535 7.20015808 17.625 9.25 C15.625 11.25 15.625 11.25 11.921875 11.33984375 C9.64561388 11.27783664 7.37239852 11.18738175 5.09765625 11.08398438 C-1.28321377 10.92251384 -5.12869648 12.25365607 -10.0078125 16.58984375 C-11.24144531 17.87568359 -11.24144531 17.87568359 -12.5 19.1875 C-13.32757812 20.04214844 -14.15515625 20.89679687 -15.0078125 21.77734375 C-15.78898437 22.59332031 -16.57015625 23.40929687 -17.375 24.25 C-18.48101563 25.33667969 -18.48101563 25.33667969 -19.609375 26.4453125 C-22.0909435 28.98178296 -23.11266045 31.48171989 -24.25 34.8125 C-25.55020893 37.62961934 -26.89583392 38.46809938 -29.375 40.25 C-33.4097092 45.9359247 -32.14677056 55.65639501 -31.375 62.25 C-29.58432193 68.01420749 -26.44856673 71.95218162 -21.375 75.25 C-20.62734375 75.76820312 -19.8796875 76.28640625 -19.109375 76.8203125 C-14.11195503 79.43324923 -8.85919088 78.92657871 -3.375 78.25 C3.57841136 76.02490836 7.98801746 71.45884877 11.625 65.25 C13.65502545 59.15992364 13.56090717 51.82374471 11.375 45.8125 C10.7975 44.966875 10.22 44.12125 9.625 43.25 C9.26535156 42.69441406 8.90570313 42.13882813 8.53515625 41.56640625 C7.59051951 40.11079163 6.61096275 38.67794605 5.625 37.25 C10.47689673 38.98282026 12.20651262 42.85883557 14.71875 47.09375 C17.36660235 53.39381249 16.0924397 60.85765012 13.625 67 C12.97914056 68.42627293 12.32022807 69.84712908 11.625 71.25 C10.965 71.25 10.305 71.25 9.625 71.25 C9.625 71.91 9.625 72.57 9.625 73.25 C7.25 75.875 7.25 75.875 4.625 78.25 C3.965 78.25 3.305 78.25 2.625 78.25 C2.625 79.24 2.625 80.23 2.625 81.25 C-1.18028391 83.01274181 -4.1910526 83.52134667 -8.375 83.5 C-9.8909375 83.50773437 -9.8909375 83.50773437 -11.4375 83.515625 C-14.4453976 83.24363426 -16.64806793 82.51321118 -19.375 81.25 C-19.375 80.59 -19.375 79.93 -19.375 79.25 C-21.0146875 79.1571875 -21.0146875 79.1571875 -22.6875 79.0625 C-26.375 78.25 -26.375 78.25 -28.125 75.8125 C-28.5375 74.966875 -28.95 74.12125 -29.375 73.25 C-30.365 72.59 -31.355 71.93 -32.375 71.25 C-33.32421875 69.3046875 -33.32421875 69.3046875 -34.0625 67.125 C-34.43955078 66.03832031 -34.43955078 66.03832031 -34.82421875 64.9296875 C-35.00597656 64.37539062 -35.18773437 63.82109375 -35.375 63.25 C-35.705 64.24 -36.035 65.23 -36.375 66.25 C-37.695 66.25 -39.015 66.25 -40.375 66.25 C-40.06715623 69.20888673 -39.75394426 72.16703167 -39.4375 75.125 C-39.35048828 75.96675781 -39.26347656 76.80851562 -39.17382812 77.67578125 C-39.08681641 78.48144531 -38.99980469 79.28710938 -38.91015625 80.1171875 C-38.831604 80.86081543 -38.75305176 81.60444336 -38.67211914 82.37060547 C-38.45862653 84.33446316 -38.45862653 84.33446316 -37.375 86.25 C-36.385 86.25 -35.395 86.25 -34.375 86.25 C-34.95084432 88.63564077 -35.59727595 90.91682784 -36.375 93.25 C-35.055 93.25 -33.735 93.25 -32.375 93.25 C-31.715 93.25 -31.055 93.25 -30.375 93.25 C-29.941875 94.2090625 -29.941875 94.2090625 -29.5 95.1875 C-28.54676549 97.40206079 -28.54676549 97.40206079 -26.375 98.25 C-26.375 98.91 -26.375 99.57 -26.375 100.25 C-28.025 99.59 -29.675 98.93 -31.375 98.25 C-31.705 99.24 -32.035 100.23 -32.375 101.25 C-38.15961538 97.80384615 -38.15961538 97.80384615 -39.25 95 C-39.29125 94.4225 -39.3325 93.845 -39.375 93.25 C-38.715 93.25 -38.055 93.25 -37.375 93.25 C-37.375 92.59 -37.375 91.93 -37.375 91.25 C-38.365 91.25 -39.355 91.25 -40.375 91.25 C-43.80922502 67.36373848 -43.80922502 67.36373848 -41.375 58.25 C-41.375 57.26 -41.375 56.27 -41.375 55.25 C-41.0687566 53.91018514 -40.74048445 52.57488113 -40.375 51.25 C-39.715 51.25 -39.055 51.25 -38.375 51.25 C-38.375 50.59 -38.375 49.93 -38.375 49.25 C-39.035 48.92 -39.695 48.59 -40.375 48.25 C-39.715 47.59 -39.055 46.93 -38.375 46.25 C-37.14209799 43.79295238 -37.14209799 43.79295238 -36.375 41.25 C-36.705 40.59 -37.035 39.93 -37.375 39.25 C-35.065 37.6 -32.755 35.95 -30.375 34.25 C-30.045 34.91 -29.715 35.57 -29.375 36.25 C-28.385 36.25 -27.395 36.25 -26.375 36.25 C-27.035 35.92 -27.695 35.59 -28.375 35.25 C-28.045 33.93 -27.715 32.61 -27.375 31.25 C-28.365 31.25 -29.355 31.25 -30.375 31.25 C-30.045 30.26 -29.715 29.27 -29.375 28.25 C-27.3125 27.5625 -27.3125 27.5625 -25.375 27.25 C-25.271875 26.156875 -25.16875 25.06375 -25.0625 23.9375 C-24.32988442 20.00801643 -24.02189752 19.79128565 -21.375 17.25 C-20.42312107 15.44842678 -20.42312107 15.44842678 -19.625 13.5 C-15.55587669 5.01744294 -9.47623421 -0.04417825 0 0 Z M-23.375 20.25 C-22.375 22.25 -22.375 22.25 -22.375 22.25 Z M-24.375 23.25 C-23.375 26.25 -23.375 26.25 -23.375 26.25 Z " fill="#E2C035" transform="translate(43.375,1.75)"/>
<path d="M0 0 C0.99 0 1.98 0 3 0 C5.73122076 2.80335165 6.37843366 4.84351886 6.40405273 8.70166016 C6.41673691 9.63007721 6.42942108 10.55849426 6.44248962 11.51504517 C6.43955399 12.51297089 6.43661835 13.51089661 6.43359375 14.5390625 C6.4388356 15.57509613 6.44407745 16.61112976 6.44947815 17.67855835 C6.45590075 19.87244777 6.4545583 22.06637161 6.44604492 24.26025391 C6.43758353 27.59210945 6.4662155 30.92222219 6.49804688 34.25390625 C6.49966039 36.39062449 6.49907848 38.52734574 6.49609375 40.6640625 C6.50732773 41.64984283 6.51856171 42.63562317 6.53013611 43.65127563 C6.426788 54.08782628 2.8459843 63.03286609 -4.5 70.5625 C-5.325 71.366875 -6.15 72.17125 -7 73 C-7.680625 73.886875 -8.36125 74.77375 -9.0625 75.6875 C-11.01284876 78.01533562 -12.29555513 78.7786378 -15 80 C-16.02019573 80.9793879 -17.02149805 81.97895449 -18 83 C-21.32575522 85.21717015 -22.3360624 85.24543438 -26.20581055 85.22705078 C-27.26668381 85.22689972 -28.32755707 85.22674866 -29.420578 85.22659302 C-30.56440445 85.21627045 -31.7082309 85.20594788 -32.88671875 85.1953125 C-34.05886429 85.1924826 -35.23100983 85.18965271 -36.43867493 85.18673706 C-40.18838643 85.17552753 -43.93786049 85.15042128 -47.6875 85.125 C-50.2272101 85.11497121 -52.76692393 85.10584519 -55.30664062 85.09765625 C-61.53784165 85.07558567 -67.76890386 85.04210039 -74 85 C-73.34 84.01 -72.68 83.02 -72 82 C-70.02319336 81.73876953 -70.02319336 81.73876953 -67.58984375 81.8828125 C-66.68983643 81.91834229 -65.7898291 81.95387207 -64.86254883 81.99047852 C-63.89728271 82.03487061 -62.9320166 82.0792627 -61.9375 82.125 C-51.41433223 82.40022264 -42.81837076 80.6123077 -33 77 C-30 76 -30 76 -27.1875 76.25 C-23.74519764 76.28992377 -23.74519764 76.28992377 -20.9375 73.4375 C-18 71 -18 71 -15.125 71.1875 C-14.42375 71.455625 -13.7225 71.72375 -13 72 C-12.67 71.34 -12.34 70.68 -12 70 C-12.99 69.505 -12.99 69.505 -14 69 C-14 68.01 -14 67.02 -14 66 C-13.34 66 -12.68 66 -12 66 C-11.9175 64.9275 -11.835 63.855 -11.75 62.75 C-10.89973337 58.49866685 -9.9919109 57.90391352 -7 55 C-6.06849245 52.93359897 -5.32741864 50.85742261 -4.61328125 48.70703125 C-4 47 -4 47 -3 46 C-2.63239269 43.67182036 -2.29758419 41.3381615 -2 39 C-1.01 38.67 -0.02 38.34 1 38 C1.38218767 36.34385343 1.71395102 34.67542976 2 33 C1.67 32.67 1.34 32.34 1 32 C0.90141397 30.5444063 0.87027857 29.08392081 0.875 27.625 C0.87113281 26.43777344 0.87113281 26.43777344 0.8671875 25.2265625 C1 23 1 23 2 20 C2.0286444 17.97033967 1.9358315 15.96476136 1.83984375 13.9375 C2 12 2 12 4 9 C2.35 7.35 0.7 5.7 -1 4 C-0.67 3.34 -0.34 2.68 0 2 C0 1.34 0 0.68 0 0 Z " fill="#F68C3D" transform="translate(122,43)"/>
<path d="M0 0 C2.70567626 1.82339052 4.53728718 3.07457436 6 6 C6.62470249 11.04224152 6.91588837 14.77009276 3.8125 18.9375 C2.884375 19.618125 1.95625 20.29875 1 21 C-0.2065625 21.8971875 -0.2065625 21.8971875 -1.4375 22.8125 C-4.74305387 24.34434204 -6.38303452 24.63828803 -10 24 C-13.32829638 22.5194197 -15.75822089 20.89333067 -18 18 C-19.23279905 12.92027381 -18.84768121 8.62754793 -16.4375 4 C-11.14999365 -0.33846675 -6.66815748 -1.85226597 0 0 Z " fill="#0D0C0A" transform="translate(46,47)"/>
<path d="M0 0 C2.17639242 1.77355055 3.92366553 3.4215498 5.1875 5.94921875 C5.32165472 8.62158085 5.23068541 11.27172363 5.1875 13.94921875 C4.5275 13.94921875 3.8675 13.94921875 3.1875 13.94921875 C2.960625 14.54734375 2.73375 15.14546875 2.5 15.76171875 C0.74573799 18.68548876 -0.68099164 19.58769338 -3.8125 20.94921875 C-9.45506945 21.48660632 -12.92432371 21.09161779 -17.8125 17.94921875 C-20.27854043 14.2501581 -20.60741944 11.24016143 -19.8125 6.94921875 C-18.06948919 3.65766529 -15.71100241 1.48346342 -12.5 -0.42578125 C-8.14346202 -1.43892962 -3.99168097 -2.31414263 0 0 Z " fill="#0F0E0B" transform="translate(95.8125,46.05078125)"/>
<path d="M0 0 C1.10085937 -0.00515625 2.20171875 -0.0103125 3.3359375 -0.015625 C7.4352869 0.31543885 11.09446082 1.0474335 14.375 3.625 C15.74663622 5.40812708 16.70610535 7.20015808 17.625 9.25 C15.625 11.25 15.625 11.25 11.921875 11.33984375 C9.64561388 11.27783664 7.37239852 11.18738175 5.09765625 11.08398438 C-1.28321377 10.92251384 -5.12869648 12.25365607 -10.0078125 16.58984375 C-11.24144531 17.87568359 -11.24144531 17.87568359 -12.5 19.1875 C-13.74136719 20.46947266 -13.74136719 20.46947266 -15.0078125 21.77734375 C-15.78898437 22.59332031 -16.57015625 23.40929687 -17.375 24.25 C-18.70494782 25.58671027 -20.03705044 26.92129894 -21.375 28.25 C-22.035 27.92 -22.695 27.59 -23.375 27.25 C-24.1875 23.875 -24.1875 23.875 -24.375 20.25 C-22.99609375 18.7578125 -22.99609375 18.7578125 -21.375 17.25 C-20.42312107 15.44842678 -20.42312107 15.44842678 -19.625 13.5 C-15.55587669 5.01744294 -9.47623421 -0.04417825 0 0 Z M-23.375 20.25 C-22.375 22.25 -22.375 22.25 -22.375 22.25 Z " fill="#060403" transform="translate(43.375,1.75)"/>
<path d="M0 0 C4.91103879 3.81969684 7.5435848 6.71191546 9.25 12.75 C9.91 13.74 10.57 14.73 11.25 15.75 C11.91796875 17.6875 11.91796875 17.6875 12.4375 19.75 C12.61667969 20.430625 12.79585937 21.11125 12.98046875 21.8125 C13.25 23.75 13.25 23.75 12.25 26.75 C9.10216783 26.44055209 7.66371301 26.2285344 5.5546875 23.7890625 C4.84699219 22.59410156 4.84699219 22.59410156 4.125 21.375 C0.61051747 15.54285872 -3.06937716 11.82756887 -9.75 9.75 C-13.11250609 9.72172624 -13.11250609 9.72172624 -16.5625 10.125 C-17.72394531 10.23585938 -18.88539062 10.34671875 -20.08203125 10.4609375 C-20.96246094 10.55632813 -21.84289062 10.65171875 -22.75 10.75 C-23.08 9.1 -23.41 7.45 -23.75 5.75 C-16.24118832 -1.13127411 -9.98016987 -4.53644085 0 0 Z " fill="#060605" transform="translate(98.75,3.25)"/>
<path d="M0 0 C0.721875 0.103125 1.44375 0.20625 2.1875 0.3125 C2.5175 1.9625 2.8475 3.6125 3.1875 5.3125 C1.53135343 5.69468767 -0.13707024 6.02645102 -1.8125 6.3125 C-2.1425 5.9825 -2.4725 5.6525 -2.8125 5.3125 C-4.89583079 7.06184898 -4.89583079 7.06184898 -6.8125 9.3125 C-6.8125 10.6325 -6.8125 11.9525 -6.8125 13.3125 C-7.45153117 14.98995682 -8.11591637 16.65811387 -8.8125 18.3125 C-8.8125 18.9725 -8.8125 19.6325 -8.8125 20.3125 C-9.4725 20.6425 -10.1325 20.9725 -10.8125 21.3125 C-11.8886054 24.88785019 -11.8886054 24.88785019 -10.8125 28.3125 C-11.1425 29.3025 -11.4725 30.2925 -11.8125 31.3125 C-12.31107685 40.97609249 -11.50525053 50.67584524 -10.8125 60.3125 C-9.8225 60.3125 -8.8325 60.3125 -7.8125 60.3125 C-8.1425 61.3025 -8.4725 62.2925 -8.8125 63.3125 C-7.56703595 67.04889216 -6.17845047 67.50006513 -2.8125 69.3125 C-2.3175 68.3225 -2.3175 68.3225 -1.8125 67.3125 C1.99416984 68.75640925 3.45352582 70.66202803 5.1875 74.3125 C4.8575 74.9725 4.5275 75.6325 4.1875 76.3125 C3.5275 75.9825 2.8675 75.6525 2.1875 75.3125 C2.5175 76.6325 2.8475 77.9525 3.1875 79.3125 C2.445 79.60125 1.7025 79.89 0.9375 80.1875 C-1.37989797 81.13552644 -3.59167115 82.16095911 -5.8125 83.3125 C-5.8125 82.6525 -5.8125 81.9925 -5.8125 81.3125 C-6.67875 81.0340625 -6.67875 81.0340625 -7.5625 80.75 C-10.90506017 78.61447545 -12.4713431 75.95638168 -13.8125 72.3125 C-14.41644425 67.96086853 -14.42070469 63.6462455 -14.4140625 59.2578125 C-14.42263275 58.00169159 -14.431203 56.74557068 -14.44003296 55.4513855 C-14.45149609 52.79986226 -14.45442243 50.14990248 -14.44384766 47.49853516 C-14.43227169 44.12342895 -14.46610644 40.75052294 -14.512537 37.37578011 C-14.54932405 34.12814387 -14.54163643 30.8806192 -14.5390625 27.6328125 C-14.55748199 26.43254425 -14.57590149 25.232276 -14.59487915 23.99563599 C-14.50820515 16.07845332 -12.96346905 11.34250123 -7.8125 5.3125 C-6.966875 4.301875 -6.12125 3.29125 -5.25 2.25 C-2.8125 0.3125 -2.8125 0.3125 0 0 Z " fill="#F6A438" transform="translate(13.8125,32.6875)"/>
<path d="M0 0 C0.39574219 0.65742188 0.79148438 1.31484375 1.19921875 1.9921875 C2.80995914 4.22156162 2.80995914 4.22156162 5.26953125 4.3203125 C6.10871094 4.25585938 6.94789062 4.19140625 7.8125 4.125 C11.99848302 3.94113545 15.08081182 4.3498155 19 6 C19 6.66 19 7.32 19 8 C21.97 8.495 21.97 8.495 25 9 C25 9.99 25 10.98 25 12 C23.35 12.33 21.7 12.66 20 13 C19.505 12.01 19.505 12.01 19 11 C18.67 11.66 18.34 12.32 18 13 C14.125 12.125 14.125 12.125 13 11 C5.26264845 9.67601145 -2.67791681 9.81685044 -10.5 9.8125 C-12.23830078 9.79413086 -12.23830078 9.79413086 -14.01171875 9.77539062 C-20.72539768 9.76401151 -27.5817108 9.78008201 -34 12 C-34.33 12.66 -34.66 13.32 -35 14 C-37.28515625 14.8515625 -37.28515625 14.8515625 -40.0625 15.625 C-41.44115234 16.01558594 -41.44115234 16.01558594 -42.84765625 16.4140625 C-43.55792969 16.60742188 -44.26820312 16.80078125 -45 17 C-44.44851374 13.34269989 -44.44851374 13.34269989 -42.46533203 11.82739258 C-41.49635986 11.36562622 -41.49635986 11.36562622 -40.5078125 10.89453125 C-39.80269531 10.55099609 -39.09757812 10.20746094 -38.37109375 9.85351562 C-37.62988281 9.50998047 -36.88867188 9.16644531 -36.125 8.8125 C-35.39152344 8.45736328 -34.65804687 8.10222656 -33.90234375 7.73632812 C-28.28695392 5.04114557 -23.26866051 3.71118043 -17.0625 3 C-10.97830295 2.30126605 -10.97830295 2.30126605 -5 1 C-4.34 1 -3.68 1 -3 1 C-3 1.66 -3 2.32 -3 3 C-2.01 3 -1.02 3 0 3 C0 2.01 0 1.02 0 0 Z " fill="#FCF9D9" transform="translate(73,9)"/>
<path d="M0 0 C0.99 0 1.98 0 3 0 C5.78544207 2.84231702 6.37525773 4.91094911 6.37231445 8.82861328 C6.38165764 10.25997116 6.38165764 10.25997116 6.39118958 11.72024536 C6.38197983 12.74326752 6.37277008 13.76628967 6.36328125 14.8203125 C6.36377975 15.87531952 6.36427826 16.93032654 6.36479187 18.01730347 C6.36245322 20.24479051 6.35273706 22.47228028 6.33618164 24.69970703 C6.31254111 28.11905375 6.31562838 31.53762333 6.32226562 34.95703125 C6.31669051 37.11979634 6.30958168 39.28255813 6.30078125 41.4453125 C6.30214836 42.98591843 6.30214836 42.98591843 6.30354309 44.55764771 C6.29401108 45.50558197 6.28447906 46.45351624 6.2746582 47.43017578 C6.27005081 48.26638458 6.26544342 49.10259338 6.26069641 49.96414185 C6 52 6 52 4 54 C3.01 54 2.02 54 1 54 C1.33 54.99 1.66 55.98 2 57 C1.5625 59.1875 1.5625 59.1875 1 61 C-0.32 61 -1.64 61 -3 61 C-3.33 61.99 -3.66 62.98 -4 64 C-5.32 63.67 -6.64 63.34 -8 63 C-8 62.34 -8 61.68 -8 61 C-8.99 61 -9.98 61 -11 61 C-9.9284589 58.77449157 -8.79587609 56.66829864 -7.5 54.5625 C-6.05646122 52.09645458 -5.03330865 49.6570794 -4 47 C-3.505 46.505 -3.505 46.505 -3 46 C-2.63239269 43.67182036 -2.29758419 41.3381615 -2 39 C-0.515 38.505 -0.515 38.505 1 38 C1.38218767 36.34385343 1.71395102 34.67542976 2 33 C1.67 32.67 1.34 32.34 1 32 C0.90141397 30.5444063 0.87027857 29.08392081 0.875 27.625 C0.87242188 26.83351563 0.86984375 26.04203125 0.8671875 25.2265625 C1 23 1 23 2 20 C2.0286444 17.97033967 1.9358315 15.96476136 1.83984375 13.9375 C2 12 2 12 4 9 C2.35 7.35 0.7 5.7 -1 4 C-0.67 3.34 -0.34 2.68 0 2 C0 1.34 0 0.68 0 0 Z " fill="#F3AC2F" transform="translate(122,43)"/>
<path d="M0 0 C2.12862888 1.29252608 4.0444377 2.70413382 5.99609375 4.25 C8.92845611 6.49978266 11.55398997 8.01308102 15.05859375 9.25 C15.71859375 9.91 16.37859375 10.57 17.05859375 11.25 C17.71859375 11.25 18.37859375 11.25 19.05859375 11.25 C19.38859375 10.59 19.71859375 9.93 20.05859375 9.25 C20.05859375 9.91 20.05859375 10.57 20.05859375 11.25 C21.11046875 11.188125 21.11046875 11.188125 22.18359375 11.125 C25.44231003 11.26668332 28.01458845 12.11734686 31.05859375 13.25 C30.39859375 14.24 29.73859375 15.23 29.05859375 16.25 C25.01590343 16.92310387 20.90056873 16.7127591 16.80859375 16.6875 C15.67550781 16.70748047 14.54242188 16.72746094 13.375 16.74804688 C7.080716 16.74435738 2.96190821 16.60420511 -1.94140625 12.25 C-3.09769531 11.33347656 -3.09769531 11.33347656 -4.27734375 10.3984375 C-5.28667969 9.52058594 -5.28667969 9.52058594 -6.31640625 8.625 C-7.00476563 8.03460938 -7.693125 7.44421875 -8.40234375 6.8359375 C-9.94140625 5.25 -9.94140625 5.25 -9.94140625 3.25 C-3.2647715 -1.26123969 -3.2647715 -1.26123969 0 0 Z " fill="#F4983B" transform="translate(18.94140625,111.75)"/>
<path d="M0 0 C3.79164991 -0.02943124 7.58326979 -0.0469419 11.375 -0.0625 C12.43589844 -0.07087891 13.49679688 -0.07925781 14.58984375 -0.08789062 C33.59194009 -0.14617926 33.59194009 -0.14617926 39 4 C39.33 3.01 39.66 2.02 40 1 C40.66 1.66 41.32 2.32 42 3 C43.98 2.34 45.96 1.68 48 1 C48.68835938 2.06541016 48.68835938 2.06541016 49.390625 3.15234375 C50.00421875 4.07144531 50.6178125 4.99054687 51.25 5.9375 C51.85328125 6.85402344 52.4565625 7.77054688 53.078125 8.71484375 C55.09333887 11.11098219 55.94918504 11.68276924 59 12 C59 11.01 59 10.02 59 9 C59.66 9 60.32 9 61 9 C62.6875 10.6875 62.6875 10.6875 64 13 C63.6875 15.5 63.6875 15.5 63 18 C63 19.32 63 20.64 63 22 C63.66 22 64.32 22 65 22 C65.33 21.34 65.66 20.68 66 20 C66.99 21.98 67.98 23.96 69 26 C68.34 26.33 67.68 26.66 67 27 C66.505 28.485 66.505 28.485 66 30 C62.2365111 28.7455037 60.60943555 26.95278233 58 24 C57.855625 23.29875 57.71125 22.5975 57.5625 21.875 C57.376875 21.25625 57.19125 20.6375 57 20 C56.05125 19.525625 55.1025 19.05125 54.125 18.5625 C50.51861064 16.75930532 50.01501749 15.35836248 48 12 C44.93319201 10.17370206 44.93319201 10.17370206 42 9 C42 8.34 42 7.68 42 7 C41.34 6.896875 40.68 6.79375 40 6.6875 C36.9128476 5.98002758 34.17190742 4.93803658 31.2578125 3.71875 C24.61424641 1.60384315 17.47195915 1.71172056 10.5625 1.4375 C9.54478516 1.39431641 8.52707031 1.35113281 7.47851562 1.30664062 C4.98578972 1.20131418 2.49297662 1.09918328 0 1 C0 0.67 0 0.34 0 0 Z " fill="#F9EC99" transform="translate(52,18)"/>
<path d="M0 0 C2.05078125 0.03255208 4.1015625 0.06510417 6.15234375 0.09765625 C6.15234375 1.74765625 6.15234375 3.39765625 6.15234375 5.09765625 C5.16234375 4.76765625 4.17234375 4.43765625 3.15234375 4.09765625 C2.82169922 4.96583984 2.82169922 4.96583984 2.484375 5.8515625 C-2.76778478 14.70784365 -16.44989905 19.02264259 -25.85131836 21.65966797 C-31.92008917 23.17533959 -37.79588673 23.48306284 -44.03515625 23.47265625 C-45.54710571 23.47023926 -45.54710571 23.47023926 -47.08959961 23.46777344 C-57.9057547 23.29098507 -66.86390882 21.45168861 -75.84765625 15.09765625 C-71.80488939 13.7500673 -70.14891418 14.92439332 -66.22265625 16.47265625 C-60.69293477 18.54771389 -55.75838044 19.94262086 -49.84765625 20.09765625 C-48.29691406 20.19046875 -48.29691406 20.19046875 -46.71484375 20.28515625 C-34.11290421 20.73623239 -23.28291515 17.57469876 -12.09765625 12.09765625 C-11.41783691 11.76572266 -10.73801758 11.43378906 -10.03759766 11.09179688 C-6.51143709 9.27011128 -3.68155534 7.70723541 -1.84765625 4.09765625 C-2.34265625 2.61265625 -2.34265625 2.61265625 -2.84765625 1.09765625 C-1.84765625 0.09765625 -1.84765625 0.09765625 0 0 Z " fill="#3B240C" transform="translate(101.84765625,80.90234375)"/>
<path d="M0 0 C4.85189673 1.73282026 6.58151262 5.60883557 9.09375 9.84375 C11.74160235 16.14381249 10.4674397 23.60765012 8 29.75 C7.35414056 31.17627293 6.69522807 32.59712908 6 34 C5.34 34 4.68 34 4 34 C4 34.66 4 35.32 4 36 C1.625 38.625 1.625 38.625 -1 41 C-1.66 41 -2.32 41 -3 41 C-3 41.99 -3 42.98 -3 44 C-6.80528391 45.76274181 -9.8160526 46.27134667 -14 46.25 C-15.5159375 46.25773437 -15.5159375 46.25773437 -17.0625 46.265625 C-20.0703976 45.99363426 -22.27306793 45.26321118 -25 44 C-25 43.34 -25 42.68 -25 42 C-26.65 41.67 -28.3 41.34 -30 41 C-30 40.34 -30 39.68 -30 39 C-30.66 39 -31.32 39 -32 39 C-33.375 36.9375 -33.375 36.9375 -35 34 C-35.36867188 33.4225 -35.73734375 32.845 -36.1171875 32.25 C-39.08768913 27.49719739 -39.08768913 27.49719739 -38.609375 24.78515625 C-38.40828125 24.19605469 -38.2071875 23.60695313 -38 23 C-37.443125 24.19625 -36.88625 25.3925 -36.3125 26.625 C-33.45396885 32.28209312 -29.99327838 37.30860922 -24.2109375 40.30078125 C-17.60617447 42.38956673 -10.26876109 42.0978799 -4.0625 39 C1.17148145 35.62634713 5.03023679 30.90928963 7 25 C7.73616771 15.01079375 7.73616771 15.01079375 4 6 C3.46052734 5.16662109 3.46052734 5.16662109 2.91015625 4.31640625 C1.96551951 2.86079163 0.98596275 1.42794605 0 0 Z " fill="#C5A041" transform="translate(49,39)"/>
<path d="M0 0 C21.96201656 0.69378919 21.96201656 0.69378919 28 4 C29.75390625 6.10546875 29.75390625 6.10546875 31 8 C30.67 8.66 30.34 9.32 30 10 C30.639375 10.309375 31.27875 10.61875 31.9375 10.9375 C34 12 34 12 35 13 C36.25338998 19.68474656 37.48791441 26.89270322 34 33 C33.17674183 29.34553692 32.85739717 25.86273764 32.6875 22.125 C32.2386415 16.58907856 31.39629512 13.40600448 28 9 C20.50433882 3.0659349 12.22696763 2.99914091 3 4 C-3.24287966 6.47828602 -6.56314035 10.44814979 -10 16 C-10.99 16 -11.98 16 -13 16 C-13.0625 13.4375 -13.0625 13.4375 -12 10 C-4.84630739 3 -4.84630739 3 -1 3 C-0.67 2.01 -0.34 1.02 0 0 Z " fill="#E2CD66" transform="translate(80,32)"/>
<path d="M0 0 C0.33 0 0.66 0 1 0 C1.20625 1.258125 1.4125 2.51625 1.625 3.8125 C2.46546647 7.06499012 2.77047949 7.81638359 5.5 10 C10.17282748 11.33509357 14.14578826 11.19679237 19 11 C18.34 14.3 17.68 17.6 17 21 C15.02 21 13.04 21 11 21 C11 20.34 11 19.68 11 19 C9.88625 18.87625 8.7725 18.7525 7.625 18.625 C4 18 4 18 2 16 C0.68 16 -0.64 16 -2 16 C-2.33333333 14.66666667 -2.66666667 13.33333333 -3 12 C-3.226875 11.360625 -3.45375 10.72125 -3.6875 10.0625 C-4.28930795 6.09056756 -2.13808618 3.20712928 0 0 Z " fill="#DCDCD1" transform="translate(75,55)"/>
<path d="M0 0 C1.11328125 1.6953125 1.11328125 1.6953125 2 4 C1.35546875 6.3671875 1.35546875 6.3671875 0.1875 8.875 C-4.20138354 19.02706394 -3.71567285 30.17643422 -2 41 C-1.67 41.66 -1.34 42.32 -1 43 C-0.01 43 0.98 43 2 43 C1.42415568 45.38564077 0.77772405 47.66682784 0 50 C1.32 50 2.64 50 4 50 C4.66 50 5.32 50 6 50 C6.433125 50.9590625 6.433125 50.9590625 6.875 51.9375 C7.82823451 54.15206079 7.82823451 54.15206079 10 55 C10 55.66 10 56.32 10 57 C8.35 56.34 6.7 55.68 5 55 C4.67 55.99 4.34 56.98 4 58 C-1.78461538 54.55384615 -1.78461538 54.55384615 -2.875 51.75 C-2.91625 51.1725 -2.9575 50.595 -3 50 C-2.34 50 -1.68 50 -1 50 C-1 49.34 -1 48.68 -1 48 C-1.99 48 -2.98 48 -4 48 C-7.43422502 24.11373848 -7.43422502 24.11373848 -5 15 C-5 14.01 -5 13.02 -5 12 C-4.6937566 10.66018514 -4.36548445 9.32488113 -4 8 C-3.34 8 -2.68 8 -2 8 C-2 7.34 -2 6.68 -2 6 C-2.66 5.67 -3.32 5.34 -4 5 C-3.34 4.34 -2.68 3.68 -2 3 C-1.34 2.01 -0.68 1.02 0 0 Z " fill="#E4AF31" transform="translate(7,45)"/>
<path d="M0 0 C1 3 1 3 -0.2578125 5.7421875 C-3.43765836 11.07741006 -6.32470879 15.83014568 -11 20 C-11.680625 20.886875 -12.36125 21.77375 -13.0625 22.6875 C-15.01284876 25.01533562 -16.29555513 25.7786378 -19 27 C-19.474375 27.495 -19.94875 27.99 -20.4375 28.5 C-22.4156595 30.39903312 -24.43558782 31.09899031 -27 32 C-26.67 31.01 -26.34 30.02 -26 29 C-26.66 29 -27.32 29 -28 29 C-27.505 27.515 -27.505 27.515 -27 26 C-25.35 26 -23.7 26 -22 26 C-21.67 25.01 -21.34 24.02 -21 23 C-19.35 23 -17.7 23 -16 23 C-16 22.01 -16 21.02 -16 20 C-16 19.01 -16 18.02 -16 17 C-16.66 16.67 -17.32 16.34 -18 16 C-18 15.01 -18 14.02 -18 13 C-17.34 13 -16.68 13 -16 13 C-15.67 11.35 -15.34 9.7 -15 8 C-14.01 8 -13.02 8 -12 8 C-11.67 8.66 -11.34 9.32 -11 10 C-10.01 10.33 -9.02 10.66 -8 11 C-7.67 9.68 -7.34 8.36 -7 7 C-6.01 7 -5.02 7 -4 7 C-3.67 5.02 -3.34 3.04 -3 1 C-2.01 0.67 -1.02 0.34 0 0 Z " fill="#F78B41" transform="translate(126,96)"/>
<path d="M0 0 C3 0 3 0 4.66918945 1.41503906 C6.68767841 5.33574372 6.36975521 9.01428497 6.29296875 13.359375 C6.28872391 14.26375305 6.28447906 15.1681311 6.28010559 16.09991455 C6.26333574 18.98358139 6.22568669 21.866545 6.1875 24.75 C6.17245097 26.70702114 6.15876295 28.66405326 6.14648438 30.62109375 C6.11343774 35.41433275 6.06166705 40.20704721 6 45 C5.67 43.68 5.34 42.36 5 41 C4.071875 41.2784375 4.071875 41.2784375 3.125 41.5625 C1 42 1 42 -1 41 C-1.33 42.32 -1.66 43.64 -2 45 C-2 43.02 -2 41.04 -2 39 C-0.515 38.505 -0.515 38.505 1 38 C1.38218767 36.34385343 1.71395102 34.67542976 2 33 C1.67 32.67 1.34 32.34 1 32 C0.90141397 30.5444063 0.87027857 29.08392081 0.875 27.625 C0.87242188 26.83351563 0.86984375 26.04203125 0.8671875 25.2265625 C1 23 1 23 2 20 C2.0286444 17.97033967 1.9358315 15.96476136 1.83984375 13.9375 C2 12 2 12 4 9 C2.35 7.35 0.7 5.7 -1 4 C-0.67 3.34 -0.34 2.68 0 2 C0 1.34 0 0.68 0 0 Z " fill="#FCB72E" transform="translate(122,43)"/>
<path d="M0 0 C0.39574219 0.65742188 0.79148437 1.31484375 1.19921875 1.9921875 C2.80995914 4.22156162 2.80995914 4.22156162 5.26953125 4.3203125 C6.10871094 4.25585938 6.94789062 4.19140625 7.8125 4.125 C11.99848302 3.94113545 15.08081182 4.3498155 19 6 C19 6.33 19 6.66 19 7 C3.32340614 7.70079649 -12.30744139 8.1499289 -28 8 C-28 7.01 -28 6.02 -28 5 C-24.39462666 3.79820889 -20.81781759 3.43033183 -17.0625 3 C-10.97830295 2.30126605 -10.97830295 2.30126605 -5 1 C-4.34 1 -3.68 1 -3 1 C-3 1.66 -3 2.32 -3 3 C-2.01 3 -1.02 3 0 3 C0 2.01 0 1.02 0 0 Z " fill="#F2F2F0" transform="translate(73,9)"/>
<path d="M0 0 C13.30136351 5.14522657 27.68034415 4.75523338 41.7265625 5.0546875 C41.7265625 5.3846875 41.7265625 5.7146875 41.7265625 6.0546875 C26.09959754 10.36557438 10.5459488 8.06412368 -4.2734375 2.0546875 C-4.6034375 2.3846875 -4.9334375 2.7146875 -5.2734375 3.0546875 C-3.2934375 4.0446875 -1.3134375 5.0346875 0.7265625 6.0546875 C0.7265625 6.3846875 0.7265625 6.7146875 0.7265625 7.0546875 C-3.7284375 7.5496875 -3.7284375 7.5496875 -8.2734375 8.0546875 C-10.3984375 1.3046875 -10.3984375 1.3046875 -9.2734375 -0.9453125 C-5.41684114 -2.23084462 -3.67413051 -1.52773124 0 0 Z " fill="#C49546" transform="translate(33.2734375,93.9453125)"/>
<path d="M0 0 C0.33 1.32 0.66 2.64 1 4 C0.34 4 -0.32 4 -1 4 C-1 4.66 -1 5.32 -1 6 C-1.66 6 -2.32 6 -3 6 C-3 10.62 -3 15.24 -3 20 C-4.32 20.33 -5.64 20.66 -7 21 C-7.33 20.01 -7.66 19.02 -8 18 C-8.99 17.67 -9.98 17.34 -11 17 C-10.67 16.34 -10.34 15.68 -10 15 C-12.91517292 16.07401108 -14.77810176 16.77810176 -17 19 C-20.125 18.625 -20.125 18.625 -23 18 C-20.70525737 14.42697792 -18.39097702 12.89846513 -14.625 11 C-7.76710639 7.66287231 -7.76710639 7.66287231 -3 2 C-2.34 2 -1.68 2 -1 2 C-0.67 1.34 -0.34 0.68 0 0 Z " fill="#F2AD49" transform="translate(108,83)"/>
<path d="M0 0 C6.22700499 3.7097051 10.58704577 7.69863732 12.9375 14.75 C13.0574261 16.91424777 13.11279542 19.08246644 13.125 21.25 C13.13917969 22.3946875 13.15335938 23.539375 13.16796875 24.71875 C12.9375 27.75 12.9375 27.75 10.9375 30.75 C10.9375 29.76 10.9375 28.77 10.9375 27.75 C9.2875 28.08 7.6375 28.41 5.9375 28.75 C6.5975 25.45 7.2575 22.15 7.9375 18.75 C8.5975 18.75 9.2575 18.75 9.9375 18.75 C10.4325 21.225 10.4325 21.225 10.9375 23.75 C10.9375 20.12 10.9375 16.49 10.9375 12.75 C10.2775 12.75 9.6175 12.75 8.9375 12.75 C8.4425 11.265 8.4425 11.265 7.9375 9.75 C7.2775 9.42 6.6175 9.09 5.9375 8.75 C5.9375 8.09 5.9375 7.43 5.9375 6.75 C5.2775 6.75 4.6175 6.75 3.9375 6.75 C3.6075 6.09 3.2775 5.43 2.9375 4.75 C-4.47596208 -0.45945984 -14.57529433 1.44427605 -23.0625 2.75 C-23.3925 4.07 -23.7225 5.39 -24.0625 6.75 C-25.3825 7.08 -26.7025 7.41 -28.0625 7.75 C-26.27180877 3.95794799 -24.17575253 1.44759621 -20.41796875 -0.5234375 C-14.15201903 -2.45621801 -6.13865262 -2.4419695 0 0 Z " fill="#F5EDC0" transform="translate(44.0625,36.25)"/>
<path d="M0 0 C4.11911358 0.95056467 8.21127435 2.10563718 12 4 C12 4.66 12 5.32 12 6 C16.455 5.505 16.455 5.505 21 5 C21 4.01 21 3.02 21 2 C22.8253125 2.0309375 22.8253125 2.0309375 24.6875 2.0625 C27.91977322 2.06824116 30.84934741 1.78766315 34 1 C29.71089441 5.80899718 25.77309506 8.64383763 19.3515625 9.25 C11.34038029 9.42558756 5.11230543 8.5566413 -1 3 C-0.67 2.01 -0.34 1.02 0 0 Z " fill="#E9E9D4" transform="translate(74,70)"/>
<path d="M0 0 C0.66 0 1.32 0 2 0 C3.6875 1.6875 3.6875 1.6875 5 4 C4.6875 6.5 4.6875 6.5 4 9 C4 10.32 4 11.64 4 13 C4.66 13 5.32 13 6 13 C6.33 12.34 6.66 11.68 7 11 C7.99 12.98 8.98 14.96 10 17 C9.34 17.33 8.68 17.66 8 18 C7.67 18.99 7.34 19.98 7 21 C3.2365111 19.7455037 1.60943555 17.95278233 -1 15 C-1.144375 14.29875 -1.28875 13.5975 -1.4375 12.875 C-1.623125 12.25625 -1.80875 11.6375 -2 11 C-3.98320018 9.96708324 -5.98347806 8.9662501 -8 8 C-8.33 7.01 -8.66 6.02 -9 5 C-3.375 3 -3.375 3 0 3 C0 2.01 0 1.02 0 0 Z " fill="#F9DF5F" transform="translate(111,27)"/>
<path d="M0 0 C0.66 0 1.32 0 2 0 C0.49198086 6.85463247 -1.99646696 10.99764464 -8 15 C-7.01 15.66 -6.02 16.32 -5 17 C-28.23066122 19.56086029 -28.23066122 19.56086029 -35.01953125 14.4921875 C-35.61121094 13.95851563 -36.20289062 13.42484375 -36.8125 12.875 C-37.41707031 12.33617188 -38.02164063 11.79734375 -38.64453125 11.2421875 C-39.31548828 10.62730469 -39.31548828 10.62730469 -40 10 C-39.67 9.34 -39.34 8.68 -39 8 C-38.55269531 8.34933594 -38.10539062 8.69867188 -37.64453125 9.05859375 C-37.03996094 9.51363281 -36.43539062 9.96867187 -35.8125 10.4375 C-35.22082031 10.88996094 -34.62914063 11.34242187 -34.01953125 11.80859375 C-28.75654789 14.91344854 -21.90837143 14.56733333 -16 14 C-9.32231846 12.27067841 -4.7485289 8.77005699 -1 3 C-0.67 2.01 -0.34 1.02 0 0 Z " fill="#BC9B53" transform="translate(112,64)"/>
<path d="M0 0 C0.495 1.485 0.495 1.485 1 3 C1.66 2.67 2.32 2.34 3 2 C0.69565097 8.22174238 -5.23239661 11.44063828 -10.953125 14.0859375 C-11.62859375 14.38757813 -12.3040625 14.68921875 -13 15 C-13.59296875 15.30164063 -14.1859375 15.60328125 -14.796875 15.9140625 C-21.26151331 18.87011506 -28.03028071 18.26430115 -35 18 C-33.68 17.01 -32.36 16.02 -31 15 C-31 15.66 -31 16.32 -31 17 C-27.18951607 15.96799394 -23.53972035 14.84506843 -19.875 13.375 C-16.79843994 12.18388044 -14.33709142 11.68714768 -11 12 C-11 10.35 -11 8.7 -11 7 C-10.01 6.67 -9.02 6.34 -8 6 C-8 6.66 -8 7.32 -8 8 C-6.68 8 -5.36 8 -4 8 C-4 6.35 -4 4.7 -4 3 C-6.31 2.67 -8.62 2.34 -11 2 C-11 1.67 -11 1.34 -11 1 C-3.375 0 -3.375 0 0 0 Z " fill="#D9AF58" transform="translate(99,81)"/>
<path d="M0 0 C3.58677686 2.24173554 3.58677686 2.24173554 5 4.25 C4.6875 6.9375 4.6875 6.9375 4 9.25 C3.34 8.92 2.68 8.59 2 8.25 C1.67 9.57 1.34 10.89 1 12.25 C1.99 12.58 2.98 12.91 4 13.25 C4 13.91 4 14.57 4 15.25 C-0.00695297 13.88350805 -2.6767174 12.07896473 -5.8125 9.25 C-6.60269531 8.54875 -7.39289062 7.8475 -8.20703125 7.125 C-10 5.25 -10 5.25 -10 3.25 C-3.33762058 -1.25160772 -3.33762058 -1.25160772 0 0 Z " fill="#F38B38" transform="translate(19,111.75)"/>
<path d="M0 0 C0.721875 0.103125 1.44375 0.20625 2.1875 0.3125 C2.5175 1.9625 2.8475 3.6125 3.1875 5.3125 C1.53135343 5.69468767 -0.13707024 6.02645102 -1.8125 6.3125 C-2.1425 5.9825 -2.4725 5.6525 -2.8125 5.3125 C-4.89583079 7.06184898 -4.89583079 7.06184898 -6.8125 9.3125 C-6.8125 10.6325 -6.8125 11.9525 -6.8125 13.3125 C-7.45153117 14.98995682 -8.11591637 16.65811387 -8.8125 18.3125 C-8.8125 18.9725 -8.8125 19.6325 -8.8125 20.3125 C-10.43876404 21.69482443 -12.1050002 23.03187515 -13.8125 24.3125 C-14.60603696 17.27353326 -13.75475328 12.98164518 -9.4609375 7.296875 C-3.74503012 0.41611446 -3.74503012 0.41611446 0 0 Z " fill="#F1D246" transform="translate(13.8125,32.6875)"/>
<path d="M0 0 C1.32 0 2.64 0 4 0 C4.61875 1.36125 4.61875 1.36125 5.25 2.75 C6.89050718 5.79665618 8.44718361 7.71126806 11 10 C10.690625 10.763125 10.38125 11.52625 10.0625 12.3125 C9.32106407 14.18789677 8.63771783 16.08684652 8 18 C8.66 18.33 9.32 18.66 10 19 C9.67 19.99 9.34 20.98 9 22 C9 22.99 9 23.98 9 25 C8.34 25 7.68 25 7 25 C5.4921875 23.46875 5.4921875 23.46875 3.875 21.5 C3.33617188 20.8503125 2.79734375 20.200625 2.2421875 19.53125 C1.83226563 19.0259375 1.42234375 18.520625 1 18 C1.33 17.34 1.66 16.68 2 16 C2.66 16.33 3.32 16.66 4 17 C4.68707555 14.50935112 5 12.62113708 5 10 C3.68 9.67 2.36 9.34 1 9 C0.67 6.03 0.34 3.06 0 0 Z " fill="#FBD249" transform="translate(114,31)"/>
<path d="M0 0 C1.33496612 0.26266695 2.66788705 0.53572653 4 0.8125 C5.11375 1.03873047 5.11375 1.03873047 6.25 1.26953125 C9 2 9 2 12.40625 3.5 C18.51734708 5.84694271 25.02966623 5.82913294 31.5 6.1875 C32.799375 6.26935547 34.09875 6.35121094 35.4375 6.43554688 C38.62449545 6.63473409 41.81173249 6.82255546 45 7 C42.04592475 9.95407525 39.40074005 9.31879794 35.35522461 9.37988281 C34.33050049 9.37827148 33.30577637 9.37666016 32.25 9.375 C30.69067749 9.37258301 30.69067749 9.37258301 29.09985352 9.37011719 C18.24197628 9.19805108 8.96022878 7.55041985 0 1 C0 0.67 0 0.34 0 0 Z " fill="#200B02" transform="translate(26,95)"/>
<path d="M0 0 C0.66 0.66 1.32 1.32 2 2 C1.030625 2.28875 0.06125 2.5775 -0.9375 2.875 C-4.10664203 3.64214682 -4.10664203 3.64214682 -5 6 C-6.66666667 6.33333333 -8.33333333 6.66666667 -10 7 C-10.33 7.66 -10.66 8.32 -11 9 C-21.56 9 -32.12 9 -43 9 C-42.34 8.01 -41.68 7.02 -41 6 C-39.02319336 5.73876953 -39.02319336 5.73876953 -36.58984375 5.8828125 C-35.68975586 5.91834229 -34.78966797 5.95387207 -33.86230469 5.99047852 C-32.89711914 6.03487061 -31.93193359 6.0792627 -30.9375 6.125 C-20.03255989 6.41041811 -9.86273947 4.93136973 0 0 Z " fill="#E79037" transform="translate(91,119)"/>
<path d="M0 0 C2.01548938 3.02323407 2.75131522 4.4355181 3 8 C1.36785968 12.2951061 -0.31803653 14.38699367 -4 17 C-4.33 17.70125 -4.66 18.4025 -5 19.125 C-6 21 -6 21 -8.125 21.75 C-9.053125 21.87375 -9.053125 21.87375 -10 22 C-10.66 20.02 -11.32 18.04 -12 16 C-9.69 14.35 -7.38 12.7 -5 11 C-4.67 11.66 -4.34 12.32 -4 13 C-3.01 13 -2.02 13 -1 13 C-1.66 12.67 -2.32 12.34 -3 12 C-2.67 10.68 -2.34 9.36 -2 8 C-2.99 8 -3.98 8 -5 8 C-4.67 7.01 -4.34 6.02 -4 5 C-1.9375 4.3125 -1.9375 4.3125 0 4 C0 2.68 0 1.36 0 0 Z " fill="#E0C332" transform="translate(18,25)"/>
<path d="M0 0 C0.495 0.99 0.495 0.99 1 2 C3.02463255 2.65213292 3.02463255 2.65213292 5 3 C4.67 4.32 4.34 5.64 4 7 C2.88625 6.2884375 2.88625 6.2884375 1.75 5.5625 C-4.59506993 1.95734663 -11.88603764 2.28462948 -19 3 C-23.62766707 4.7449725 -27.60035109 7.60064367 -30 12 C-30.72351427 13.98014432 -31.40265389 15.97821315 -32 18 C-32.66 18 -33.32 18 -34 18 C-34.36966019 13.6872978 -33.59294033 11.45725378 -31 8 C-21.75898106 -1.02611152 -12.13181003 -0.37222599 0 0 Z " fill="#D6C15A" transform="translate(45,33)"/>
<path d="M0 0 C2.76276177 0.52268466 5.3260876 1.10869587 8 2 C8 2.66 8 3.32 8 4 C8.721875 4.061875 9.44375 4.12375 10.1875 4.1875 C13.86394594 5.24958438 15.51284942 7.15754219 18 10 C18 10.33 18 10.66 18 11 C11.07 10.67 4.14 10.34 -3 10 C-3 9.67 -3 9.34 -3 9 C-1.35 8.67 0.3 8.34 2 8 C2.16681109 5.08347826 2.16681109 5.08347826 2 2 C1.34 1.34 0.68 0.68 0 0 Z " fill="#F0D755" transform="translate(86,23)"/>
<path d="M0 0 C2 2 2 2 2 5 C1.83757812 5.60328125 1.67515625 6.2065625 1.5078125 6.828125 C-0.76909211 16.56627086 1.28548776 28.06062444 2 38 C2.99 38 3.98 38 5 38 C4.67 38.99 4.34 39.98 4 41 C4.38932856 43.14255793 4.38932856 43.14255793 5 45 C4.01 45 3.02 45 2 45 C2 44.34 2 43.68 2 43 C1.01 43 0.02 43 -1 43 C-1.02467332 37.19759432 -1.04284724 31.39521902 -1.05493164 25.59277344 C-1.0599681 23.61783313 -1.06679751 21.64289657 -1.07543945 19.66796875 C-1.08753508 16.83332395 -1.0932351 13.99872834 -1.09765625 11.1640625 C-1.10281754 10.27756012 -1.10797882 9.39105774 -1.11329651 8.47769165 C-1.11387171 2.22774341 -1.11387171 2.22774341 0 0 Z " fill="#E7B72F" transform="translate(1,55)"/>
<path d="M0 0 C0.66 0.33 1.32 0.66 2 1 C-1.32658228 5.80506329 -1.32658228 5.80506329 -4.375 6.6875 C-5.24125 6.790625 -6.1075 6.89375 -7 7 C-9.76732811 7.86818137 -12.40552844 8.70276422 -15 10 C-15 9.34 -15 8.68 -15 8 C-16.32 8.33 -17.64 8.66 -19 9 C-19 8.67 -19 8.34 -19 8 C-19.60473145 7.98018066 -20.20946289 7.96036133 -20.83251953 7.93994141 C-23.59708509 7.84413701 -26.36095174 7.73468445 -29.125 7.625 C-30.07632813 7.5940625 -31.02765625 7.563125 -32.0078125 7.53125 C-37.01710348 7.32252954 -41.30366613 6.94494635 -46 5 C-42.72620523 3.90873508 -42.15347394 4.14641721 -39 5 C-26.92178382 5.81945134 -12.82564866 6.72180126 -1.82421875 0.8359375 C-1.22222656 0.56007813 -0.62023437 0.28421875 0 0 Z " fill="#A1733D" transform="translate(85,98)"/>
<path d="M0 0 C2.06100547 2.06100547 2.99703011 3.79547924 4.3125 6.375 C6.39874727 10.19264896 8.29593339 12.5923567 12 15 C12.70511719 15.52464844 13.41023438 16.04929687 14.13671875 16.58984375 C17.88533577 18.43602485 21.23734923 18.32952938 25.3125 18.1875 C26.05306641 18.17396484 26.79363281 18.16042969 27.55664062 18.14648438 C29.37141075 18.11135979 31.18580288 18.05755972 33 18 C33 18.66 33 19.32 33 20 C29.43913342 21.18695553 26.02668976 21.35095418 22.3125 21.5625 C21.2596582 21.62727539 21.2596582 21.62727539 20.18554688 21.69335938 C18.45724794 21.7991736 16.7286489 21.90006581 15 22 C14.67 21.01 14.34 20.02 14 19 C12.35 18.67 10.7 18.34 9 18 C9 17.34 9 16.68 9 16 C8.34 16 7.68 16 7 16 C5.625 13.9375 5.625 13.9375 4 11 C3.64292969 10.4225 3.28585937 9.845 2.91796875 9.25 C0.81660364 5.80465225 0 4.12954513 0 0 Z " fill="#A38836" transform="translate(10,62)"/>
<path d="M0 0 C1.63410952 0.70851612 3.25709862 1.44271537 4.875 2.1875 C6.23238281 2.79658203 6.23238281 2.79658203 7.6171875 3.41796875 C10.46460099 5.30846459 11.05619488 6.77262041 12 10 C8.56169885 10 5.38035912 9.62599243 2 9 C1.67 8.34 1.34 7.68 1 7 C0.67 8.65 0.34 10.3 0 12 C-0.33 11.01 -0.66 10.02 -1 9 C-3.01508358 8.26676204 -3.01508358 8.26676204 -5 8 C-4.67 6.35 -4.34 4.7 -4 3 C-3.34 3.33 -2.68 3.66 -2 4 C-1.34 2.68 -0.68 1.36 0 0 Z " fill="#FAA23E" transform="translate(24,116)"/>
<path d="M0 0 C1.11328125 1.6953125 1.11328125 1.6953125 2 4 C1.35546875 6.3671875 1.35546875 6.3671875 0.1875 8.875 C-2.88560189 15.5666007 -3.20982911 22.12501162 -3.5625 29.375 C-3.60568359 30.20644531 -3.64886719 31.03789063 -3.69335938 31.89453125 C-3.79861805 33.92953228 -3.89973072 35.96474703 -4 38 C-4.33 38 -4.66 38 -5 38 C-5.81083624 33.73989211 -6.13515187 29.7098481 -6.125 25.375 C-6.12757813 24.26898438 -6.13015625 23.16296875 -6.1328125 22.0234375 C-6.02054274 19.46764952 -5.67160724 17.44123902 -5 15 C-5 14.01 -5 13.02 -5 12 C-4.6937566 10.66018514 -4.36548445 9.32488113 -4 8 C-3.34 8 -2.68 8 -2 8 C-2 7.34 -2 6.68 -2 6 C-2.66 5.67 -3.32 5.34 -4 5 C-3.34 4.34 -2.68 3.68 -2 3 C-1.34 2.01 -0.68 1.02 0 0 Z " fill="#C59914" transform="translate(7,45)"/>
<path d="M0 0 C0.33 0.66 0.66 1.32 1 2 C0.67 2.99 0.34 3.98 0 5 C-0.66 5 -1.32 5 -2 5 C-2 5.99 -2 6.98 -2 8 C-1.01 8.33 -0.02 8.66 1 9 C0.67 9.99 0.34 10.98 0 12 C-1.051875 11.731875 -2.10375 11.46375 -3.1875 11.1875 C-4.445625 11.125625 -5.70375 11.06375 -7 11 C-9.68767578 13.43750025 -9.68767578 13.43750025 -12 16 C-14.3125 15.8125 -14.3125 15.8125 -16 15 C-14.85833779 11.57501337 -13.83747094 11.14434168 -10.8984375 9.31640625 C-6.96793116 6.59093169 -3.52248349 3.22502933 0 0 Z " fill="#EA9636" transform="translate(110,104)"/>
<path d="M0 0 C0.66 0.33 1.32 0.66 2 1 C1.34 2.32 0.68 3.64 0 5 C-0.99 5 -1.98 5 -3 5 C-2.67 5.99 -2.34 6.98 -2 8 C-2.4375 10.1875 -2.4375 10.1875 -3 12 C-4.32 12 -5.64 12 -7 12 C-7.33 12.99 -7.66 13.98 -8 15 C-9.9375 14.6875 -9.9375 14.6875 -12 14 C-12.33 13.01 -12.66 12.02 -13 11 C-11.21079529 9.3514184 -9.4187995 7.70606879 -7.625 6.0625 C-6.86316406 5.35963867 -6.86316406 5.35963867 -6.0859375 4.64257812 C-2.2265625 1.11328125 -2.2265625 1.11328125 0 0 Z " fill="#FB9B2E" transform="translate(126,92)"/>
<path d="M0 0 C1.2890625 0.00386719 2.578125 0.00773437 3.90625 0.01171875 C7.23323966 0.29017332 9.51825509 0.87323467 12.5 2.3125 C11.84 2.9725 11.18 3.6325 10.5 4.3125 C9.84 3.9825 9.18 3.6525 8.5 3.3125 C6.33589316 3.19005711 4.16753477 3.13698858 2 3.125 C0.25203125 3.10373047 0.25203125 3.10373047 -1.53125 3.08203125 C-4.61906718 2.99806286 -4.61906718 2.99806286 -6.5 5.3125 C-7.6446875 5.5290625 -7.6446875 5.5290625 -8.8125 5.75 C-11.62072712 6.18294897 -11.62072712 6.18294897 -14.1875 7.9375 C-14.950625 8.39125 -15.71375 8.845 -16.5 9.3125 C-17.16 8.9825 -17.82 8.6525 -18.5 8.3125 C-12.36478797 3.03336407 -8.4709488 -0.11012233 0 0 Z " fill="#FBF8CF" transform="translate(90.5,34.6875)"/>
<path d="M0 0 C3.24208567 0.35049575 4.61527704 0.56221181 6.8125 3.0625 C7.204375 3.701875 7.59625 4.34125 8 5 C7.67 5.66 7.34 6.32 7 7 C7.9590625 7.4640625 7.9590625 7.4640625 8.9375 7.9375 C11 9 11 9 12 10 C13.25338998 16.68474656 14.48791441 23.89270322 11 30 C10.17399858 26.35626795 9.88680894 22.91554365 9.75 19.1875 C9.37093305 13.97051078 8.20582016 10.76687359 5.05859375 6.62109375 C4 5 4 5 4 2 C2.68 1.34 1.36 0.68 0 0 Z " fill="#D9C652" transform="translate(103,35)"/>
<path d="M0 0 C0.66 0.33 1.32 0.66 2 1 C2 1.66 2 2.32 2 3 C-3.5522888 5.8352113 -7.80112515 6.37952295 -14 6 C-14 6.66 -14 7.32 -14 8 C-14.66 8 -15.32 8 -16 8 C-16.33 8.66 -16.66 9.32 -17 10 C-18.98 10 -20.96 10 -23 10 C-23.33 11.32 -23.66 12.64 -24 14 C-25.65 13.67 -27.3 13.34 -29 13 C-28 11 -28 11 -25 10 C-24.360625 9.29875 -23.72125 8.5975 -23.0625 7.875 C-22.381875 7.25625 -21.70125 6.6375 -21 6 C-18.875 6.25 -18.875 6.25 -17 7 C-16.34 7 -15.68 7 -15 7 C-15 6.34 -15 5.68 -15 5 C-14.33613281 4.80664062 -13.67226563 4.61328125 -12.98828125 4.4140625 C-7.42543723 2.78069963 -7.42543723 2.78069963 -2 0.75 C-1.34 0.5025 -0.68 0.255 0 0 Z " fill="#F4D660" transform="translate(49,18)"/>
<path d="M0 0 C11.36253394 1.14970742 22.68981492 2.41082601 34 4 C33.67 4.66 33.34 5.32 33 6 C21.77708828 6.45807803 11.5498522 6.46778903 1 2 C0.67 1.34 0.34 0.68 0 0 Z " fill="#E69E34" transform="translate(37,118)"/>
<path d="M0 0 C0.33 1.32 0.66 2.64 1 4 C0.34 4 -0.32 4 -1 4 C-1 4.66 -1 5.32 -1 6 C-1.66 6 -2.32 6 -3 6 C-3.33 7.65 -3.66 9.3 -4 11 C-4.71027344 11.20496094 -5.42054687 11.40992187 -6.15234375 11.62109375 C-7.07144531 11.89050781 -7.99054688 12.15992187 -8.9375 12.4375 C-10.31228516 12.83775391 -10.31228516 12.83775391 -11.71484375 13.24609375 C-13.9402493 13.79026051 -13.9402493 13.79026051 -15 15 C-16.66617115 15.04063832 -18.33388095 15.042721 -20 15 C-16.01999677 11.90653777 -11.75732484 9.34495995 -7.4609375 6.71875 C-4.78484477 5.07218053 -4.78484477 5.07218053 -3 2 C-2.34 2 -1.68 2 -1 2 C-0.67 1.34 -0.34 0.68 0 0 Z " fill="#CD9E58" transform="translate(108,83)"/>
<path d="M0 0 C0.99 1.485 0.99 1.485 2 3 C3.98 2.34 5.96 1.68 8 1 C7.67 2.98 7.34 4.96 7 7 C6.34 7 5.68 7 5 7 C3.80011955 12.28199593 3.80011955 12.28199593 6 17 C5.34 17.66 4.68 18.32 4 19 C-0.66928844 13.89296577 -0.35199549 9.38157043 -0.140625 2.6328125 C-0.09421875 1.76398437 -0.0478125 0.89515625 0 0 Z " fill="#EBE9E0" transform="translate(68,52)"/>
<path d="M0 0 C3.3 0 6.6 0 10 0 C9.34 2.64 8.68 5.28 8 8 C6.02 8 4.04 8 2 8 C2 7.34 2 6.68 2 6 C1.01 5.67 0.02 5.34 -1 5 C-0.67 3.35 -0.34 1.7 0 0 Z " fill="#DFDED6" transform="translate(84,68)"/>
<path d="M0 0 C0.66 0 1.32 0 2 0 C1.95359375 1.14597656 1.9071875 2.29195312 1.859375 3.47265625 C1.82183091 5.00257791 1.78543359 6.53252801 1.75 8.0625 C1.69972656 9.19075195 1.69972656 9.19075195 1.6484375 10.34179688 C1.54934226 16.06454718 2.79918775 19.25548893 6 24 C5.34 24.66 4.68 25.32 4 26 C4 25.34 4 24.68 4 24 C2.68 23.67 1.36 23.34 0 23 C-1.97679796 17.42835834 -2.04785979 13.35954451 -1.125 7.5625 C-1.02058594 6.83095703 -0.91617188 6.09941406 -0.80859375 5.34570312 C-0.55209621 3.5618793 -0.27788741 1.78061703 0 0 Z " fill="#D8C05A" transform="translate(67,48)"/>
<path d="M0 0 C5.26053037 -0.31563182 8.44573816 0.33409063 13 3 C13.33 2.34 13.66 1.68 14 1 C16.475 4.465 16.475 4.465 19 8 C14.40410325 9.14897419 13.73828148 8.7140729 9.75 6.5625 C8.85796875 6.08941406 7.9659375 5.61632812 7.046875 5.12890625 C6.37140625 4.75636719 5.6959375 4.38382813 5 4 C5 3.34 5 2.68 5 2 C3.35 1.67 1.7 1.34 0 1 C0 0.67 0 0.34 0 0 Z " fill="#FCF48A" transform="translate(89,23)"/>
<path d="M0 0 C3 0 3 0 4.67578125 1.515625 C6.48538404 4.91063201 6.32540171 8.0089741 6.1875 11.75 C6.17396484 12.44738281 6.16042969 13.14476562 6.14648438 13.86328125 C6.1112945 15.57585541 6.05749155 17.28802941 6 19 C5.34 19 4.68 19 4 19 C2.39660152 15.88228073 1.81025859 14.60988311 2.875 11.1875 C3.24625 10.465625 3.6175 9.74375 4 9 C2.35 7.35 0.7 5.7 -1 4 C-0.67 3.34 -0.34 2.68 0 2 C0 1.34 0 0.68 0 0 Z " fill="#F5B12E" transform="translate(122,43)"/>
<path d="M0 0 C4.85189673 1.73282026 6.58151262 5.60883557 9.09375 9.84375 C11.74160235 16.14381249 10.4674397 23.60765012 8 29.75 C7.35414056 31.17627293 6.69522807 32.59712908 6 34 C5.34 33.67 4.68 33.34 4 33 C4.309375 32.236875 4.61875 31.47375 4.9375 30.6875 C7.7245631 23.63786981 8.37415092 15.77891503 5.75 8.5625 C5.1725 7.716875 4.595 6.87125 4 6 C3.64035156 5.44441406 3.28070313 4.88882813 2.91015625 4.31640625 C1.96551951 2.86079163 0.98596275 1.42794605 0 0 Z " fill="#C8B155" transform="translate(49,39)"/>
<path d="M0 0 C1.75 1.5625 1.75 1.5625 3 3 C1 4 1 4 -3 4 C-1.02 4.99 0.96 5.98 3 7 C3 7.33 3 7.66 3 8 C-1.455 8.495 -1.455 8.495 -6 9 C-8.125 2.25 -8.125 2.25 -7 0 C-3.83170302 -1.05609899 -3.01480825 -1.13055309 0 0 Z " fill="#BC903E" transform="translate(31,93)"/>
<path d="M0 0 C1.921875 1.52734375 1.921875 1.52734375 3 3 C2.0821875 2.98839844 1.164375 2.97679687 0.21875 2.96484375 C-6.29003027 2.91698507 -12.56870645 2.97099303 -19 4 C-19.33 5.32 -19.66 6.64 -20 8 C-21.32 8.33 -22.64 8.66 -24 9 C-22.21149311 5.21257365 -20.11636218 2.70793032 -16.37109375 0.7265625 C-11.14185598 -0.8758069 -5.37872127 -0.75004781 0 0 Z " fill="#FBF8C8" transform="translate(40,35)"/>
<path d="M0 0 C2.475 0.99 2.475 0.99 5 2 C5 2.99 5 3.98 5 5 C11.31972924 6.19656638 17.60794144 7.27637073 24 8 C24 8.66 24 9.32 24 10 C15.95457323 10.67148848 10.3338936 10.57184019 3.70703125 5.703125 C1.91667665 3.91686732 0.98182503 2.31610006 0 0 Z " fill="#E5DEB6" transform="translate(16,71)"/>
<path d="M0 0 C0.61875 0.165 1.2375 0.33 1.875 0.5 C6.25470729 1.20075317 10.57428989 1.07734251 15 1 C14.01 2.485 14.01 2.485 13 4 C10.36 3.67 7.72 3.34 5 3 C5 4.32 5 5.64 5 7 C3.35 7.33 1.7 7.66 0 8 C-0.99 6.68 -1.98 5.36 -3 4 C-2.01 2.68 -1.02 1.36 0 0 Z " fill="#D0CFC8" transform="translate(79,65)"/>
<path d="M0 0 C0.66 0.66 1.32 1.32 2 2 C4.65537372 2.56520003 7.29144713 2.73788198 10 3 C10 3.33 10 3.66 10 4 C3.07 4 -3.86 4 -11 4 C-11 3.01 -11 2.02 -11 1 C-7.07703567 -0.30765478 -4.13997567 -0.1971417 0 0 Z " fill="#FEFDF7" transform="translate(56,13)"/>
<path d="M0 0 C0.66 0 1.32 0 2 0 C0.49198086 6.85463247 -1.99646696 10.99764464 -8 15 C-7.01 15.66 -6.02 16.32 -5 17 C-8.96 17.495 -8.96 17.495 -13 18 C-12.02311813 13.97036228 -10.15660683 12.11726711 -7.0625 9.5625 C-3.61944452 6.71307477 -1.65294318 4.23566691 0 0 Z " fill="#AC944B" transform="translate(112,64)"/>
<path d="M0 0 C1.32 0 2.64 0 4 0 C4.4125 0.886875 4.825 1.77375 5.25 2.6875 C6.90127288 5.81312366 8.71331259 8.31905614 11 11 C8.6875 11.6875 8.6875 11.6875 6 12 C4.3125 10.5625 4.3125 10.5625 3 9 C2.34 9 1.68 9 1 9 C0.67 6.03 0.34 3.06 0 0 Z " fill="#EED04A" transform="translate(114,31)"/>
<path d="M0 0 C0.66 0.33 1.32 0.66 2 1 C-0.44394513 4.31678267 -2.26020456 6.31106013 -6 8 C-6.474375 8.495 -6.94875 8.99 -7.4375 9.5 C-9.4156595 11.39903312 -11.43558782 12.09899031 -14 13 C-13.67 12.01 -13.34 11.02 -13 10 C-13.66 10 -14.32 10 -15 10 C-14.67 9.01 -14.34 8.02 -14 7 C-12.35 7 -10.7 7 -9 7 C-8.67 6.01 -8.34 5.02 -8 4 C-6.35 4 -4.7 4 -3 4 C-2.67 3.34 -2.34 2.68 -2 2 C-1.34 2 -0.68 2 0 2 C0 1.34 0 0.68 0 0 Z " fill="#EA4428" transform="translate(113,115)"/>
<path d="M0 0 C-7.7646235 6.79404556 -16.2233594 6.37074339 -26 6 C-24.68 5.01 -23.36 4.02 -22 3 C-22 3.66 -22 4.32 -22 5 C-18.21862659 3.97587803 -14.62245955 2.86784954 -11 1.375 C-7.15832885 -0.11814953 -4.09526759 -0.25595422 0 0 Z " fill="#D4A853" transform="translate(90,93)"/>
<path d="M0 0 C0.33 0 0.66 0 1 0 C0.94199219 0.99 0.88398438 1.98 0.82421875 3 C0.38278315 12.82502119 0.38278315 12.82502119 4.80859375 21.38671875 C6.16790474 23.22735953 6.57724895 24.76962377 7 27 C7.66 27 8.32 27 9 27 C9 27.66 9 28.32 9 29 C6 28 6 28 5 26.0625 C4.67 25.381875 4.34 24.70125 4 24 C3.01 23.34 2.02 22.68 1 22 C-1.17696318 17.96430082 -1.24040389 14.40549685 -1.1875 9.875 C-1.18105469 8.65554687 -1.17460937 7.43609375 -1.16796875 6.1796875 C-1 3 -1 3 0 0 Z " fill="#C5A335" transform="translate(10,51)"/>
<path d="M0 0 C2 0 2 0 3.75 1.6875 C5 4 5 4 4.1875 6.75 C3.795625 7.4925 3.40375 8.235 3 9 C-1.455 8.01 -1.455 8.01 -6 7 C-6 6.01 -6 5.02 -6 4 C-4.02 3.67 -2.04 3.34 0 3 C0 2.01 0 1.02 0 0 Z " fill="#F6E771" transform="translate(111,27)"/>
<path d="M0 0 C3.52081558 -0.02927632 7.04159939 -0.04689119 10.5625 -0.0625 C11.55314453 -0.07087891 12.54378906 -0.07925781 13.56445312 -0.08789062 C18.82548699 -0.10536914 23.81764665 0.07691602 29 1 C27.875 2.5 27.875 2.5 26 4 C22.8125 4.1875 22.8125 4.1875 20 4 C19.67 3.34 19.34 2.68 19 2 C17.10424749 1.97278824 15.20838021 1.95350864 13.3125 1.9375 C12.25675781 1.92589844 11.20101562 1.91429688 10.11328125 1.90234375 C7.27589738 1.99134575 4.7561081 2.35060162 2 3 C1.34 2.01 0.68 1.02 0 0 Z " fill="#F5D657" transform="translate(52,19)"/>
<path d="M0 0 C-1.98 0.99 -3.96 1.98 -6 3 C-6 2.01 -6 1.02 -6 0 C-3 -1 -3 -1 0 0 Z M-7 4 C-7.33 4.99 -7.66 5.98 -8 7 C-8.99 7 -9.98 7 -11 7 C-10.67 7.99 -10.34 8.98 -10 10 C-10.33 10.66 -10.66 11.32 -11 12 C-11.66 12 -12.32 12 -13 12 C-13 14.97 -13 17.94 -13 21 C-15.6195479 15.76090419 -14.79107334 12.59924096 -13.125 7.125 C-11.62425193 4.29025365 -10.13414717 4 -7 4 Z " fill="#FBF5DB" transform="translate(27,39)"/>
<path d="M0 0 C0.99266409 2.68019304 1.066309 3.80580936 0.125 6.5625 C-0.24625 7.366875 -0.6175 8.17125 -1 9 C-2.06546953 12.1964086 -2.07427838 14.65747276 -2 18 C-4 15 -4 15 -5 13 C-8.02934491 12.34227572 -8.02934491 12.34227572 -11 12 C-10.443125 11.608125 -9.88625 11.21625 -9.3125 10.8125 C-5.38376366 7.73322016 -1.91246222 4.69422546 0 0 Z " fill="#E9BB61" transform="translate(112,68)"/>
<path d="M0 0 C2.0625 1.625 2.0625 1.625 4 4 C3.75 7.25 3.75 7.25 3 10 C0.03 9.505 0.03 9.505 -3 9 C-3.26218749 5.85375007 -3.24754367 4.38162983 -1.5 1.6875 C-1.005 1.130625 -0.51 0.57375 0 0 Z " fill="#585557" transform="translate(47,48)"/>
<path d="M0 0 C2.1875 0.3125 2.1875 0.3125 4 1 C-3.03543751 7.36539584 -8.64048162 8.33294729 -18 8 C-15.45523695 5.45523695 -13.49390518 5.63726721 -10.03125 5.2734375 C-6.52238801 4.80109069 -3.86046356 3.92930065 -1.4375 1.3125 C-0.963125 0.879375 -0.48875 0.44625 0 0 Z " fill="#F9F2D3" transform="translate(104,71)"/>
<path d="M0 0 C2.0625 1.6875 2.0625 1.6875 4 4 C3.75 6.75 3.75 6.75 3 9 C-1.875 8.125 -1.875 8.125 -3 7 C-3.25 4.5625 -3.25 4.5625 -3 2 C-2.01 1.34 -1.02 0.68 0 0 Z " fill="#54534D" transform="translate(96,47)"/>
<path d="M0 0 C0 0.33 0 0.66 0 1 C-7.73865554 3.13480153 -15.00023956 3.20483028 -23 3 C-23 2.34 -23 1.68 -23 1 C-15.30881404 0.24833087 -7.72772107 -0.13690844 0 0 Z " fill="#B48E58" transform="translate(75,99)"/>
<path d="M0 0 C0.99 0 1.98 0 3 0 C2.690625 0.598125 2.38125 1.19625 2.0625 1.8125 C0.89790296 4.08956772 0.89790296 4.08956772 0 7 C-1.84765625 7.94921875 -1.84765625 7.94921875 -4.0625 8.6875 C-5.16271484 9.06455078 -5.16271484 9.06455078 -6.28515625 9.44921875 C-6.85105469 9.63097656 -7.41695312 9.81273437 -8 10 C-8 8.68 -8 7.36 -8 6 C-7.236875 5.7525 -6.47375 5.505 -5.6875 5.25 C-2.72509328 3.87213641 -1.88592499 2.5717159 0 0 Z " fill="#F2D44E" transform="translate(28,27)"/>
<path d="M0 0 C6.27 0 12.54 0 19 0 C18.67 0.66 18.34 1.32 18 2 C8.595 2.495 8.595 2.495 -1 3 C-0.67 2.01 -0.34 1.02 0 0 Z " fill="#C58B4B" transform="translate(48,105)"/>
<path d="M0 0 C2 2 2 2 2 5 C1.83701416 5.6280957 1.67402832 6.25619141 1.50610352 6.90332031 C0.95312954 9.19417437 0.8864358 11.19249838 0.90234375 13.546875 C0.90556641 14.39121094 0.90878906 15.23554687 0.91210938 16.10546875 C0.92048828 16.97816406 0.92886719 17.85085937 0.9375 18.75 C0.94201172 19.63816406 0.94652344 20.52632812 0.95117188 21.44140625 C0.962926 23.62767329 0.97935751 25.81380179 1 28 C0.34 27.67 -0.32 27.34 -1 27 C-1.02892385 22.87501462 -1.04677267 18.75005515 -1.0625 14.625 C-1.07087891 13.449375 -1.07925781 12.27375 -1.08789062 11.0625 C-1.09111328 9.94101563 -1.09433594 8.81953125 -1.09765625 7.6640625 C-1.10289307 6.62717285 -1.10812988 5.5902832 -1.11352539 4.52197266 C-1 2 -1 2 0 0 Z " fill="#D8AC26" transform="translate(1,55)"/>
<path d="M0 0 C0.39801392 3.4826218 0.12373826 4.80799236 -1.8125 7.8125 C-2.534375 8.534375 -3.25625 9.25625 -4 10 C-4.99 10 -5.98 10 -7 10 C-7 9.34 -7 8.68 -7 8 C-6.34 8 -5.68 8 -5 8 C-5 5.69 -5 3.38 -5 1 C-3 0 -3 0 0 0 Z " fill="#FAF2D1" transform="translate(55,64)"/>
<path d="M0 0 C0.33 0 0.66 0 1 0 C2.10228696 4.40914783 2.07654536 8.48382401 2 13 C2.99 13.33 3.98 13.66 5 14 C5 15.98 5 17.96 5 20 C2.47411298 17.63707344 1.11179163 16.33537489 0 13 C-0.06937062 10.77181559 -0.08457084 8.54165476 -0.0625 6.3125 C-0.05347656 5.13300781 -0.04445313 3.95351563 -0.03515625 2.73828125 C-0.02355469 1.83464844 -0.01195312 0.93101563 0 0 Z " fill="#F2E2B8" transform="translate(11,51)"/>
<path d="M0 0 C1.1875 1.5625 1.1875 1.5625 2 4 C0.625 7.75 0.625 7.75 -1 11 C-1.66 11 -2.32 11 -3 11 C-3.66 12.32 -4.32 13.64 -5 15 C-5 12.37886292 -4.68707555 10.49064888 -4 8 C-3.34 8 -2.68 8 -2 8 C-2 7.34 -2 6.68 -2 6 C-2.66 5.67 -3.32 5.34 -4 5 C-3.34 4.34 -2.68 3.68 -2 3 C-1.34 2.01 -0.68 1.02 0 0 Z " fill="#C6A719" transform="translate(7,45)"/>
<path d="M0 0 C1.65 0 3.3 0 5 0 C4.67 0.66 4.34 1.32 4 2 C3.34 1.67 2.68 1.34 2 1 C3.12109566 2.62493901 3.12109566 2.62493901 5 4 C8.12549017 4.25048636 8.12549017 4.25048636 11 4 C11 4.99 11 5.98 11 7 C8.03 7 5.06 7 2 7 C0 3 0 3 0 0 Z " fill="#E3AC33" transform="translate(18,104)"/>
<path d="M0 0 C0.66 0 1.32 0 2 0 C2 0.66 2 1.32 2 2 C2.99 2 3.98 2 5 2 C5.33 3.32 5.66 4.64 6 6 C5.2575 6.28875 4.515 6.5775 3.75 6.875 C1.43260203 7.82302644 -0.77917115 8.84845911 -3 10 C-3 9.34 -3 8.68 -3 8 C-2.34 8 -1.68 8 -1 8 C-1.33 7.01 -1.66 6.02 -2 5 C-1.34 4.01 -0.68 3.02 0 2 C0 1.34 0 0.68 0 0 Z " fill="#FDAC47" transform="translate(11,106)"/>
<path d="M0 0 C-2 3 -2 3 -4.20703125 3.765625 C-5.06683594 3.92546875 -5.92664063 4.0853125 -6.8125 4.25 C-8.09060547 4.50523438 -8.09060547 4.50523438 -9.39453125 4.765625 C-12.15761167 5.01417796 -14.32136377 4.67326584 -17 4 C-11.88643979 1.01708988 -5.89517358 -0.36844835 0 0 Z " fill="#321A07" transform="translate(83,98)"/>
<path d="M0 0 C0.66 0.99 1.32 1.98 2 3 C1.01 4.485 1.01 4.485 0 6 C0 6.66 0 7.32 0 8 C-2.375 7.8125 -2.375 7.8125 -5 7 C-6.3125 4.4375 -6.3125 4.4375 -7 2 C-5.02 2 -3.04 2 -1 2 C-0.67 1.34 -0.34 0.68 0 0 Z " fill="#EE8633" transform="translate(10,106)"/>
<path d="M0 0 C0.66 0.33 1.32 0.66 2 1 C1.34 2.32 0.68 3.64 0 5 C-0.99 5 -1.98 5 -3 5 C-2.67 5.99 -2.34 6.98 -2 8 C-2.4375 10.1875 -2.4375 10.1875 -3 12 C-3.66 12 -4.32 12 -5 12 C-5.95651196 9.41741772 -6.03620881 8.1349601 -5.3125 5.4375 C-3.87964707 2.77648742 -2.52914172 1.60178975 0 0 Z " fill="#FC8F44" transform="translate(126,92)"/>
<path d="M0 0 C0.99 0.495 0.99 0.495 2 1 C2.92350727 3.77052181 3.16329585 5.56688758 3.1875 8.4375 C3.20167969 9.19933594 3.21585937 9.96117187 3.23046875 10.74609375 C2.97612666 13.23347315 2.24017196 14.84808106 1 17 C0.09586327 13.16275828 -0.10576898 9.62497726 -0.0625 5.6875 C-0.05347656 4.61886719 -0.04445313 3.55023438 -0.03515625 2.44921875 C-0.02355469 1.64097656 -0.01195313 0.83273438 0 0 Z " fill="#C8B052" transform="translate(113,48)"/>
<path d="M0 0 C3.4375 0.8125 3.4375 0.8125 7 2 C7.33 2.99 7.66 3.98 8 5 C8.99 5.66 9.98 6.32 11 7 C11 7.99 11 8.98 11 10 C11.66 10 12.32 10 13 10 C13.33 11.32 13.66 12.64 14 14 C10.57548836 12.85849612 9.91203482 11.95548398 7.8125 9.125 C7.28269531 8.42632812 6.75289062 7.72765625 6.20703125 7.0078125 C5 5 5 5 5 2 C3.35 1.67 1.7 1.34 0 1 C0 0.67 0 0.34 0 0 Z " fill="#EFD253" transform="translate(45,34)"/>
<path d="M0 0 C0.33 1.32 0.66 2.64 1 4 C0.34 4 -0.32 4 -1 4 C-1 4.66 -1 5.32 -1 6 C-1.66 6 -2.32 6 -3 6 C-3.33 7.65 -3.66 9.3 -4 11 C-5.32 10.67 -6.64 10.34 -8 10 C-7.45912682 6.21388773 -5.88277668 4.44599233 -3 2 C-2.34 2 -1.68 2 -1 2 C-0.67 1.34 -0.34 0.68 0 0 Z " fill="#D3A452" transform="translate(108,83)"/>
<path d="M0 0 C0.66 0.33 1.32 0.66 2 1 C2 1.66 2 2.32 2 3 C3.36125 3.2165625 3.36125 3.2165625 4.75 3.4375 C7.21476956 3.86409473 9.58847107 4.35074221 12 5 C11.67 6.32 11.34 7.64 11 9 C7.61723506 8.39593483 5.65678929 7.14257201 3 5 C2.01 4.34 1.02 3.68 0 3 C0 2.01 0 1.02 0 0 Z " fill="#FAE965" transform="translate(103,31)"/>
<path d="M0 0 C2.0625 0.4375 2.0625 0.4375 4 1 C4 1.66 4 2.32 4 3 C4.99 3 5.98 3 7 3 C6.67 3.99 6.34 4.98 6 6 C3.69 6 1.38 6 -1 6 C-1.042721 4.33388095 -1.04063832 2.66617115 -1 1 C-0.67 0.67 -0.34 0.34 0 0 Z " fill="#FAD342" transform="translate(89,25)"/>
<path d="M0 0 C0.66 0 1.32 0 2 0 C3.125 6.625 3.125 6.625 2 10 C0.68 9.67 -0.64 9.34 -2 9 C-1.34 6.03 -0.68 3.06 0 0 Z " fill="#F1B03F" transform="translate(102,94)"/>
<path d="M0 0 C0 0.33 0 0.66 0 1 C-10.395 1.495 -10.395 1.495 -21 2 C-21.33 1.34 -21.66 0.68 -22 0 C-14.57161355 -1.33710956 -7.48595793 -0.68340908 0 0 Z " fill="#BE8E4B" transform="translate(64,99)"/>
<path d="M0 0 C0.66 0.33 1.32 0.66 2 1 C0.625 3.5625 0.625 3.5625 -2 6 C-5.42221863 6.15019141 -8.64463 5.64674116 -12 5 C-12 4.67 -12 4.34 -12 4 C-8 2.66666667 -4 1.33333333 0 0 Z " fill="#B68C49" transform="translate(85,98)"/>
<path d="M0 0 C1 3 1 3 -0.43359375 5.91796875 C-1.09488281 6.99691406 -1.75617188 8.07585937 -2.4375 9.1875 C-3.09621094 10.27417969 -3.75492187 11.36085938 -4.43359375 12.48046875 C-5.20896484 13.72763672 -5.20896484 13.72763672 -6 15 C-6.66 14.67 -7.32 14.34 -8 14 C-7.360625 12.96875 -6.72125 11.9375 -6.0625 10.875 C-4.18288629 7.61390342 -3.36873469 4.77953056 -3 1 C-2.01 0.67 -1.02 0.34 0 0 Z " fill="#E33A1C" transform="translate(126,96)"/>
<path d="M0 0 C0.66 0 1.32 0 2 0 C3.59138085 4.17737474 4.21278058 7.53160785 4 12 C3.67 11.01 3.34 10.02 3 9 C1.35 9.33 -0.3 9.66 -2 10 C-1.34 6.7 -0.68 3.4 0 0 Z " fill="#D7D5C8" transform="translate(52,55)"/>
<path d="M0 0 C0.8353125 0.556875 0.8353125 0.556875 1.6875 1.125 C1.0275 1.125 0.3675 1.125 -0.3125 1.125 C-0.3125 2.115 -0.3125 3.105 -0.3125 4.125 C-1.9625 4.455 -3.6125 4.785 -5.3125 5.125 C-5.3125 4.465 -5.3125 3.805 -5.3125 3.125 C-5.9725 3.125 -6.6325 3.125 -7.3125 3.125 C-7.3125 2.465 -7.3125 1.805 -7.3125 1.125 C-2.88173077 -1.09038462 -2.88173077 -1.09038462 0 0 Z " fill="#EBA03A" transform="translate(80.3125,119.875)"/>
<path d="M0 0 C0.33 0 0.66 0 1 0 C1.02578125 0.98742188 1.0515625 1.97484375 1.078125 2.9921875 C1.13484375 4.27351563 1.1915625 5.55484375 1.25 6.875 C1.29640625 8.15117188 1.3428125 9.42734375 1.390625 10.7421875 C1.62555056 14.09188105 1.62555056 14.09188105 4.046875 15.4453125 C4.69140625 15.62835938 5.3359375 15.81140625 6 16 C5.34 16.99 4.68 17.98 4 19 C-0.66928844 13.89296577 -0.35199549 9.38157043 -0.140625 2.6328125 C-0.09421875 1.76398437 -0.0478125 0.89515625 0 0 Z " fill="#F6EDC2" transform="translate(68,52)"/>
<path d="M0 0 C1.485 0.99 1.485 0.99 3 2 C5.11280345 2.63292383 5.11280345 2.63292383 7 3 C7.33 4.65 7.66 6.3 8 8 C4.89347355 7.6641593 3.39585697 7.40950721 1.1875 5.125 C0 3 0 3 0 0 Z " fill="#373016" transform="translate(103,22)"/>
<path d="M0 0 C0.33 0.66 0.66 1.32 1 2 C1.8353125 2.4021875 1.8353125 2.4021875 2.6875 2.8125 C5.91969966 4.4722782 8.30758777 6.55235252 11 9 C11 9.66 11 10.32 11 11 C7.88256767 9.49901406 4.84498177 7.97568178 2 6 C2 5.01 2 4.02 2 3 C1.01 2.67 0.02 2.34 -1 2 C-0.67 1.34 -0.34 0.68 0 0 Z " fill="#ED9D2C" transform="translate(14,105)"/>
<path d="M0 0 C0.99 0 1.98 0 3 0 C5.35723489 2.53184488 6 3.47190093 6 7 C3.03 6.505 3.03 6.505 0 6 C-0.5625 4.0625 -0.5625 4.0625 -1 2 C-0.67 1.67 -0.34 1.34 0 1 C0 0.67 0 0.34 0 0 Z " fill="#ECAC39" transform="translate(122,43)"/>
<path d="M0 0 C0.66 0.33 1.32 0.66 2 1 C1.319375 1.804375 1.319375 1.804375 0.625 2.625 C-1.21688312 5.31698302 -2.07971933 7.88520388 -3 11 C-3.66 11 -4.32 11 -5 11 C-5.36541918 6.73677629 -4.49759276 4.45820536 -2 1 C-1.34 0.67 -0.68 0.34 0 0 Z " fill="#D7B967" transform="translate(16,40)"/>
<path d="M0 0 C0.99 0.33 1.98 0.66 3 1 C3 1.66 3 2.32 3 3 C1.68 3.33 0.36 3.66 -1 4 C-1.33 5.32 -1.66 6.64 -2 8 C-3.65 7.67 -5.3 7.34 -7 7 C-6 5 -6 5 -3 4 C-1.31461399 2.00334686 -1.31461399 2.00334686 0 0 Z " fill="#DFD366" transform="translate(27,24)"/>
<path d="M0 0 C1.32 1.32 2.64 2.64 4 4 C3.67 4.99 3.34 5.98 3 7 C1.02 6.34 -0.96 5.68 -3 5 C-3 3.68 -3 2.36 -3 1 C-2.01 0.67 -1.02 0.34 0 0 Z " fill="#F3F3B7" transform="translate(99,19)"/>
<path d="M0 0 C0.99 0.66 1.98 1.32 3 2 C2.07213211 3.00894372 1.13231567 4.00690907 0.1875 5 C-0.59560547 5.8353125 -0.59560547 5.8353125 -1.39453125 6.6875 C-3 8 -3 8 -6 8 C-5.75 6.125 -5.75 6.125 -5 4 C-3 2.875 -3 2.875 -1 2 C-0.67 1.34 -0.34 0.68 0 0 Z " fill="#F8B144" transform="translate(107,103)"/>
<path d="M0 0 C2.31 0 4.62 0 7 0 C6.67 1.65 6.34 3.3 6 5 C3.03 4.505 3.03 4.505 0 4 C0 2.68 0 1.36 0 0 Z " fill="#E3E1DB" transform="translate(21,72)"/>
<path d="M0 0 C1.74627478 2.61941217 2.38722388 4.03824877 3 7 C0.36 7.33 -2.28 7.66 -5 8 C-4.67 7.01 -4.34 6.02 -4 5 C-1.9375 4.3125 -1.9375 4.3125 0 4 C0 2.68 0 1.36 0 0 Z " fill="#E1D929" transform="translate(18,25)"/>
<path d="M0 0 C-1 2 -1 2 -3.28515625 2.8515625 C-4.20167969 3.10679688 -5.11820313 3.36203125 -6.0625 3.625 C-7.44115234 4.01558594 -7.44115234 4.01558594 -8.84765625 4.4140625 C-9.55792969 4.60742188 -10.26820312 4.80078125 -11 5 C-10.67 3.68 -10.34 2.36 -10 1 C-6.61981469 -0.04005702 -3.5219721 -0.08004482 0 0 Z " fill="#FEFACA" transform="translate(39,21)"/>
<path d="M0 0 C1.46015291 0.28241641 2.91809793 0.57626614 4.375 0.875 C5.18710937 1.03742188 5.99921875 1.19984375 6.8359375 1.3671875 C9 2 9 2 11 4 C10.67 4.66 10.34 5.32 10 6 C6.40992874 4.66654496 3.20429093 3.1056769 0 1 C0 0.67 0 0.34 0 0 Z " fill="#462A0C" transform="translate(26,95)"/>
<path d="M0 0 C0.33 0 0.66 0 1 0 C1.33 4.95 1.66 9.9 2 15 C1.34 15 0.68 15 0 15 C-1.47193312 12.05613377 -0.84936173 9.62609964 -0.5625 6.375 C-0.46066406 5.18648438 -0.35882813 3.99796875 -0.25390625 2.7734375 C-0.17011719 1.85820313 -0.08632813 0.94296875 0 0 Z " fill="#D7A823" transform="translate(3,76)"/>
<path d="M0 0 C3.60153162 1.65475777 5.2974477 3.08925078 6.8125 6.6875 C7.204375 7.780625 7.59625 8.87375 8 10 C6.68 9.67 5.36 9.34 4 9 C4 7.35 4 5.7 4 4 C2.68 4 1.36 4 0 4 C0 2.68 0 1.36 0 0 Z " fill="#F9F2C5" transform="translate(104,38)"/>
<path d="M0 0 C1.32 0 2.64 0 4 0 C4.33 0.66 4.66 1.32 5 2 C7.02463255 2.65213292 7.02463255 2.65213292 9 3 C8.67 4.32 8.34 5.64 8 7 C7.2575 6.54625 6.515 6.0925 5.75 5.625 C3.53069422 4.31359204 1.32032178 3.11719197 -1 2 C-0.67 1.34 -0.34 0.68 0 0 Z " fill="#E2CB6A" transform="translate(41,33)"/>
<path d="M0 0 C0 0.66 0 1.32 0 2 C1.32 2.33 2.64 2.66 4 3 C0.04 3 -3.92 3 -8 3 C-5.45189726 -0.82215411 -4.39145359 -1.46381786 0 0 Z " fill="#F8CE4E" transform="translate(40,30)"/>
<path d="M0 0 C0.99 0.66 1.98 1.32 3 2 C-0.96 2 -4.92 2 -9 2 C-9.33 1.34 -9.66 0.68 -10 0 C-6.25105057 -1.24964981 -3.84864723 -0.75598428 0 0 Z " fill="#FEFEFB" transform="translate(89,14)"/>
<path d="M0 0 C3.625 -0.1875 3.625 -0.1875 7 0 C5.515 1.98 5.515 1.98 4 4 C1.03 3.505 1.03 3.505 -2 3 C-1.34 2.01 -0.68 1.02 0 0 Z " fill="#E0AC4E" transform="translate(87,98)"/>
<path d="M0 0 C2 2 2 2 2.125 4.625 C2.08375 5.40875 2.0425 6.1925 2 7 C-0.31 7.33 -2.62 7.66 -5 8 C-4.34 6.68 -3.68 5.36 -3 4 C-3 4.66 -3 5.32 -3 6 C-2.34 6 -1.68 6 -1 6 C-0.67 4.02 -0.34 2.04 0 0 Z " fill="#F3942B" transform="translate(126,86)"/>
<path d="M0 0 C1.8125 0.1875 1.8125 0.1875 4 1 C5.75 3.5625 5.75 3.5625 7 6 C4.69 5.34 2.38 4.68 0 4 C0 2.68 0 1.36 0 0 Z " fill="#F1F0D4" transform="translate(74,70)"/>
<path d="M0 0 C0.99 0 1.98 0 3 0 C3.33 1.65 3.66 3.3 4 5 C2.34385343 5.38218767 0.67542976 5.71395102 -1 6 C-1.33 5.67 -1.66 5.34 -2 5 C-2.99 5.495 -2.99 5.495 -4 6 C-2.84826645 3.53199953 -1.95216435 1.95216435 0 0 Z " fill="#FCF650" transform="translate(13,33)"/>
<path d="M0 0 C4.875 4.75 4.875 4.75 6 7 C4.68 7.33 3.36 7.66 2 8 C1.67 6.68 1.34 5.36 1 4 C-0.65 3.67 -2.3 3.34 -4 3 C-4 2.34 -4 1.68 -4 1 C-2.68 1.33 -1.36 1.66 0 2 C0 1.34 0 0.68 0 0 Z " fill="#F3EB99" transform="translate(102,24)"/>
<path d="M0 0 C0 0.99 0 1.98 0 3 C-0.66 3 -1.32 3 -2 3 C-2 3.66 -2 4.32 -2 5 C-4.64 5.33 -7.28 5.66 -10 6 C-7.27521226 2.63408573 -3.93143208 1.55773724 0 0 Z " fill="#FAFEF7" transform="translate(41,16)"/>
<path d="M0 0 C1.65 1.32 3.3 2.64 5 4 C4.67 5.65 4.34 7.3 4 9 C3.67 8.01 3.34 7.02 3 6 C0.98491642 5.26676204 0.98491642 5.26676204 -1 5 C-0.67 3.35 -0.34 1.7 0 0 Z " fill="#FDA354" transform="translate(20,119)"/>
<path d="M0 0 C0 1.98 0 3.96 0 6 C-2.64 5.67 -5.28 5.34 -8 5 C-1.87096774 0 -1.87096774 0 0 0 Z " fill="#D6D7CE" transform="translate(50,66)"/>
<path d="M0 0 C3.80666984 1.44390925 5.26602582 3.34952803 7 7 C6.67 7.66 6.34 8.32 6 9 C3 7 3 7 2.3125 4.375 C2.209375 3.59125 2.10625 2.8075 2 2 C1.34 2 0.68 2 0 2 C0 1.34 0 0.68 0 0 Z " fill="#F0B23A" transform="translate(12,100)"/>
<path d="M0 0 C0.66 0.66 1.32 1.32 2 2 C1.9375 4 1.9375 4 1 6 C-1.5625 7.25 -1.5625 7.25 -4 8 C-4.33 7.34 -4.66 6.68 -5 6 C-4.34 6 -3.68 6 -3 6 C-3 5.34 -3 4.68 -3 4 C-2.34 3.67 -1.68 3.34 -1 3 C-0.67 2.01 -0.34 1.02 0 0 Z " fill="#F4C04E" transform="translate(110,83)"/>
<path d="M0 0 C1.98 0 3.96 0 6 0 C6 1.65 6 3.3 6 5 C4.35 4.67 2.7 4.34 1 4 C0.67 2.68 0.34 1.36 0 0 Z " fill="#210F06" transform="translate(102,81)"/>
<path d="M0 0 C0.99928333 2.698065 1.03624754 3.88010429 0.1875 6.6875 C-1 9 -1 9 -3 10 C-3.66 9.34 -4.32 8.68 -5 8 C-4.360625 7.236875 -3.72125 6.47375 -3.0625 5.6875 C-0.85767219 3.11753287 -0.85767219 3.11753287 0 0 Z " fill="#E4BE4C" transform="translate(112,68)"/>
<path d="M0 0 C0.66 0.33 1.32 0.66 2 1 C1.09827532 2.17825358 0.17798498 3.34231577 -0.75 4.5 C-1.51570313 5.47453125 -1.51570313 5.47453125 -2.296875 6.46875 C-4 8 -4 8 -8 8 C-8 7.34 -8 6.68 -8 6 C-6.02678947 4.6273318 -4.02456848 3.29572383 -2 2 C-1.34 1.34 -0.68 0.68 0 0 Z " fill="#A48C42" transform="translate(52,72)"/>
<path d="M0 0 C1.07999887 3.2399966 0.92129428 4.38363535 0.1875 7.625 C0.01605469 8.42164062 -0.15539062 9.21828125 -0.33203125 10.0390625 C-1 12 -1 12 -3 13 C-2.52060632 8.28596212 -2.03165952 4.33420699 0 0 Z " fill="#BA960E" transform="translate(4,56)"/>
<path d="M0 0 C0.66 0.33 1.32 0.66 2 1 C2 4.3 2 7.6 2 11 C1.34 9.68 0.68 8.36 0 7 C-0.99 6.67 -1.98 6.34 -3 6 C-2.01 6 -1.02 6 0 6 C0 4.02 0 2.04 0 0 Z " fill="#262423" transform="translate(50,52)"/>
<path d="M0 0 C0.33 0 0.66 0 1 0 C0.25 7.75 0.25 7.75 -2 10 C-3.05236973 6.65155086 -3.20005388 5.40920111 -1.625 2.1875 C-1.08875 1.465625 -0.5525 0.74375 0 0 Z " fill="#E6BF3D" transform="translate(10,46)"/>
<path d="M0 0 C2.625 1.4375 2.625 1.4375 5 3 C4.34 3.66 3.68 4.32 3 5 C2.67 4.34 2.34 3.68 2 3 C1.67 3.66 1.34 4.32 1 5 C-0.32 4.67 -1.64 4.34 -3 4 C-2.67 3.01 -2.34 2.02 -2 1 C-1.34 0.67 -0.68 0.34 0 0 Z " fill="#FCF9C6" transform="translate(90,17)"/>
<path d="M0 0 C0.66 0 1.32 0 2 0 C2 0.99 2 1.98 2 3 C2.66 3 3.32 3 4 3 C4 3.66 4 4.32 4 5 C2.35 5.33 0.7 5.66 -1 6 C-1.042721 4.33388095 -1.04063832 2.66617115 -1 1 C-0.67 0.67 -0.34 0.34 0 0 Z " fill="#EBB85A" transform="translate(89,87)"/>
<path d="M0 0 C3.3 0 6.6 0 10 0 C9.01 0.495 9.01 0.495 8 1 C8 2.65 8 4.3 8 6 C7.34 6 6.68 6 6 6 C5.67 4.68 5.34 3.36 5 2 C3.35 1.67 1.7 1.34 0 1 C0 0.67 0 0.34 0 0 Z " fill="#F1BE4E" transform="translate(87,83)"/>
<path d="M0 0 C3.63 2.31 7.26 4.62 11 7 C10.01 7.495 10.01 7.495 9 8 C2.41176471 4.82352941 2.41176471 4.82352941 0 0 Z " fill="#A49343" transform="translate(72,72)"/>
<path d="M0 0 C2.13586678 3.20380017 2.23132175 4.01939967 2.125 7.6875 C2.10695312 8.49574219 2.08890625 9.30398437 2.0703125 10.13671875 C2.04710937 10.75160156 2.02390625 11.36648437 2 12 C1.34 11.67 0.68 11.34 0 11 C-0.99716532 7.01133873 -1.0502717 3.9676931 0 0 Z " fill="#FDFDE7" transform="translate(54,49)"/>
<path d="M0 0 C-1.98 0.99 -3.96 1.98 -6 3 C-6 2.01 -6 1.02 -6 0 C-3 -1 -3 -1 0 0 Z M-7 4 C-7.33 4.99 -7.66 5.98 -8 7 C-8.99 7 -9.98 7 -11 7 C-11 6.34 -11 5.68 -11 5 C-9 4 -9 4 -7 4 Z " fill="#FEFCE4" transform="translate(27,39)"/>
<path d="M0 0 C0.66 0.33 1.32 0.66 2 1 C1.54625 1.4125 1.0925 1.825 0.625 2.25 C-1.05950374 4.06408095 -1.99265971 5.75285627 -3 8 C-4.32 7.67 -5.64 7.34 -7 7 C-4.69 4.69 -2.38 2.38 0 0 Z " fill="#F5E425" transform="translate(11,33)"/>
<path d="M0 0 C0.99 0 1.98 0 3 0 C2.690625 0.598125 2.38125 1.19625 2.0625 1.8125 C0.89790296 4.08956772 0.89790296 4.08956772 0 7 C-0.99 6.67 -1.98 6.34 -3 6 C-1.125 1.125 -1.125 1.125 0 0 Z " fill="#EBD33E" transform="translate(28,27)"/>
<path d="M0 0 C1.32 0 2.64 0 4 0 C4.12375 0.639375 4.2475 1.27875 4.375 1.9375 C4.684375 2.9584375 4.684375 2.9584375 5 4 C5.66 4.33 6.32 4.66 7 5 C6.01 5.33 5.02 5.66 4 6 C1.2160817 4.60804085 1.02101003 2.84424221 0 0 Z " fill="#CF912D" transform="translate(36,112)"/>
<path d="M0 0 C1.9375 0.75 1.9375 0.75 4 2 C4.75 4.125 4.75 4.125 5 6 C4.01 6 3.02 6 2 6 C2 5.34 2 4.68 2 4 C1.01 4 0.02 4 -1 4 C-0.67 2.68 -0.34 1.36 0 0 Z " fill="#FDBE3D" transform="translate(1,94)"/>
<path d="M0 0 C0.33 0 0.66 0 1 0 C0.49202991 4.3177458 -0.19682779 8.03302114 -2 12 C-2.66 11.67 -3.32 11.34 -4 11 C-3.71125 10.29875 -3.4225 9.5975 -3.125 8.875 C-1.97866412 5.94547497 -0.97374346 2.99078347 0 0 Z " fill="#B79A50" transform="translate(57,61)"/>
<path d="M0 0 C-0.625 1.875 -0.625 1.875 -2 4 C-5.125 5.25 -5.125 5.25 -8 6 C-3.38461538 0 -3.38461538 0 0 0 Z " fill="#F9EFC6" transform="translate(80,38)"/>
<path d="M0 0 C0 0.66 0 1.32 0 2 C-0.99 2 -1.98 2 -3 2 C-3.33 3.32 -3.66 4.64 -4 6 C-5.32 6.33 -6.64 6.66 -8 7 C-4.13157895 0 -4.13157895 0 0 0 Z " fill="#F9F0B7" transform="translate(24,37)"/>
<path d="M0 0 C2.64 0 5.28 0 8 0 C8 0.99 8 1.98 8 3 C5.125 3.1875 5.125 3.1875 2 3 C1.34 2.01 0.68 1.02 0 0 Z " fill="#DAA330" transform="translate(21,108)"/>
<path d="M0 0 C1 3 1 3 0.0625 5.1875 C-0.4634375 6.0846875 -0.4634375 6.0846875 -1 7 C-2.32 7 -3.64 7 -5 7 C-4.1875 5.0625 -4.1875 5.0625 -3 3 C-2.01 2.67 -1.02 2.34 0 2 C0 1.34 0 0.68 0 0 Z " fill="#CEA94A" transform="translate(53,73)"/>
<path d="M0 0 C-5.75 4 -5.75 4 -8 4 C-8 3.01 -8 2.02 -8 1 C-3.375 -1.125 -3.375 -1.125 0 0 Z " fill="#F3E9C6" transform="translate(50,75)"/>
<path d="M0 0 C0.66 0 1.32 0 2 0 C3.6875 2.3125 3.6875 2.3125 5 5 C4.67 5.99 4.34 6.98 4 8 C0 3.375 0 3.375 0 0 Z " fill="#E3A52B" transform="translate(7,95)"/>
<path d="M0 0 C0.66 0 1.32 0 2 0 C1.67 1.98 1.34 3.96 1 6 C1.66 6.33 2.32 6.66 3 7 C2.01 7.66 1.02 8.32 0 9 C-1.15941038 5.52176885 -0.70820884 3.54104422 0 0 Z " fill="#FBAD3B" transform="translate(120,88)"/>
<path d="M0 0 C0.33 0.99 0.66 1.98 1 3 C0.01 3.33 -0.98 3.66 -2 4 C-2.66 3.67 -3.32 3.34 -4 3 C-4.33 4.32 -4.66 5.64 -5 7 C-5 5.02 -5 3.04 -5 1 C-3 0 -3 0 0 0 Z " fill="#F8B831" transform="translate(125,81)"/>
<path d="M0 0 C0.33 1.32 0.66 2.64 1 4 C1.66 4 2.32 4 3 4 C3 5.65 3 7.3 3 9 C2.01 8.67 1.02 8.34 0 8 C0 5.36 0 2.72 0 0 Z " fill="#F4B62A" transform="translate(123,67)"/>
<path d="M0 0 C1.65 1.65 3.3 3.3 5 5 C3.35 5.33 1.7 5.66 0 6 C-0.66 4.68 -1.32 3.36 -2 2 C-1.34 1.34 -0.68 0.68 0 0 Z " fill="#ECB249" transform="translate(120,37)"/>
<path d="M0 0 C0.66 0 1.32 0 2 0 C2 0.66 2 1.32 2 2 C2.99 2 3.98 2 5 2 C5 2.66 5 3.32 5 4 C3.02 4.33 1.04 4.66 -1 5 C-0.67 3.35 -0.34 1.7 0 0 Z " fill="#F5B933" transform="translate(1,91)"/>
<path d="M0 0 C0.66 0 1.32 0 2 0 C3.32 2.31 4.64 4.62 6 7 C5.34 7.66 4.68 8.32 4 9 C0 2.25 0 2.25 0 0 Z " fill="#BAAB52" transform="translate(67,65)"/>
<path d="M0 0 C0 0.99 0 1.98 0 3 C-0.99 3 -1.98 3 -3 3 C-3 3.66 -3 4.32 -3 5 C-3.66 5 -4.32 5 -5 5 C-5 3.68 -5 2.36 -5 1 C-3 0 -3 0 0 0 Z " fill="#F7F7F0" transform="translate(55,64)"/>
<path d="M0 0 C2 2 2 2 2 5 C1.6937566 6.33981486 1.36548445 7.67511887 1 9 C0.34 9 -0.32 9 -1 9 C-1.125 2.25 -1.125 2.25 0 0 Z " fill="#DEBB2E" transform="translate(1,55)"/>
<path d="M0 0 C0.99 0.33 1.98 0.66 3 1 C3 4.20395416 2.25664978 6.09399739 1 9 C0.67 9 0.34 9 0 9 C0 6.03 0 3.06 0 0 Z " fill="#FDEB43" transform="translate(0,48)"/>
<path d="M0 0 C0.99 0.33 1.98 0.66 3 1 C2.34 2.32 1.68 3.64 1 5 C-0.32 5 -1.64 5 -3 5 C-2.625 3.0625 -2.625 3.0625 -2 1 C-1.34 0.67 -0.68 0.34 0 0 Z " fill="#D4C228" transform="translate(18,32)"/>
<path d="M0 0 C4 1 4 1 4 1 Z " fill="#040303" transform="translate(45,0)"/>
<path d="M0 0 C4 1 4 1 4 1 Z " fill="#040202" transform="translate(37,0)"/>
<path d="M0 0 C0.99 0.495 0.99 0.495 2 1 C1.01 1.495 1.01 1.495 0 2 C0 1.34 0 0.68 0 0 Z " fill="#020000" transform="translate(27,7)"/>
<path d="" fill="#020000" transform="translate(0,0)"/>
<path d="" fill="#020000" transform="translate(0,0)"/>
<path d="" fill="#020000" transform="translate(0,0)"/>
<path d="M0 0 C2 1 2 1 2 1 Z " fill="#020202" transform="translate(52,2)"/>
<path d="M0 0 C2 1 2 1 2 1 Z " fill="#030101" transform="translate(33,2)"/>
<path d="M0 0 C2 1 2 1 2 1 Z " fill="#050505" transform="translate(82,1)"/>
<path d="M0 0 C2 1 2 1 2 1 Z " fill="#020202" transform="translate(50,1)"/>
<path d="M0 0 C2 1 2 1 2 1 Z " fill="#040202" transform="translate(35,1)"/>
<path d="M0 0 C2 1 2 1 2 1 Z " fill="#050505" transform="translate(93,0)"/>
<path d="M0 0 C2 1 2 1 2 1 Z " fill="#020202" transform="translate(84,0)"/>
<path d="" fill="#07000A" transform="translate(0,0)"/>
<path d="" fill="#030001" transform="translate(0,0)"/>
<path d="" fill="#000000" transform="translate(0,0)"/>
<path d="" fill="#000000" transform="translate(0,0)"/>
<path d="" fill="#03020C" transform="translate(0,0)"/>
<path d="" fill="#050409" transform="translate(0,0)"/>
<path d="" fill="#010101" transform="translate(0,0)"/>
<path d="" fill="#020000" transform="translate(0,0)"/>
<path d="" fill="#010101" transform="translate(0,0)"/>
<path d="" fill="#000000" transform="translate(0,0)"/>
<path d="" fill="#030001" transform="translate(0,0)"/>
<path d="" fill="#020202" transform="translate(0,0)"/>
<path d="" fill="#000000" transform="translate(0,0)"/>
<path d="" fill="#030001" transform="translate(0,0)"/>
<path d="" fill="#020202" transform="translate(0,0)"/>
<path d="" fill="#050505" transform="translate(0,0)"/>
<path d="" fill="#020202" transform="translate(0,0)"/>
<path d="" fill="#030001" transform="translate(0,0)"/>
<path d="" fill="#050505" transform="translate(0,0)"/>
<path d="" fill="#030303" transform="translate(0,0)"/>
</svg>
