<svg version="1.2" xmlns="http://www.w3.org/2000/svg" viewBox="0 0 363 348" width="363" height="348"><defs><linearGradient id="P" gradientUnits="userSpaceOnUse"/><linearGradient id="g1" x2="1" href="#P" gradientTransform="matrix(116.623,232.74,-91.441,45.82,184.805,84.666)"><stop stop-color="#fff" stop-opacity="0"/><stop offset=".5" stop-color="#71c2ff" stop-opacity="1"/><stop offset="1" stop-color="#39aaff" stop-opacity="1"/></linearGradient></defs><style>.a{opacity:.5;fill:url(#g1)}.b{fill:#2185d0}</style><path class="a" d="m184.8 84.7q-0.3 0-0.7 0.1-0.3 0.1-0.5 0.3-0.2 0.2-0.3 0.5-0.1 0.2 0 0.5l69.9 261.9c8.3-3.6 16.4-7.9 24.2-12.7 7.8-4.8 15.1-10.2 22.1-16.2 6.9-5.9 13.4-12.4 19.3-19.3 6-6.9 11.4-14.3 16.3-22.1l-148.9-192.5q-0.1-0.1-0.3-0.2-0.1-0.1-0.3-0.2-0.2-0.1-0.4-0.1-0.2 0-0.4 0z"/><path class="b" d="m180.7 0c-23.7 0.1-47.3 4.8-69.2 14-21.9 9.2-41.8 22.5-58.6 39.4-16.8 16.8-30.1 36.8-39.2 58.7-9 22-13.7 45.5-13.7 69.3q0 12.7 1.8 25.3 1.7 12.6 5.3 24.8 3.5 12.2 8.7 23.9 5.1 11.6 11.9 22.3l151.2-195.5q0.4-0.5 1.1-0.8 0.6-0.2 1.4-0.2 0.8 0 1.4 0.2 0.7 0.3 1 0.8l151.3 195.5q6.7-10.7 11.9-22.3 5.2-11.7 8.7-23.9 3.5-12.2 5.3-24.8 1.8-12.6 1.8-25.3c0-23.8-4.7-47.4-13.8-69.4-9.1-22-22.5-42-39.3-58.9-16.9-16.8-36.9-30.2-58.9-39.3-22-9.1-45.6-13.8-69.4-13.8q-0.1 0-0.2 0-0.1 0-0.1 0-0.1 0-0.2 0-0.1 0-0.2 0z"/></svg>