<svg xmlns="http://www.w3.org/2000/svg"  viewBox="0 0 50 50" width="50px" height="50px"><path d="M 2.140625 8.4160156 C 1.5464453 8.3779121 1.01425 8.8778125 1.078125 9.5078125 C 2.342125 21.977813 18.578609 42.202563 35.974609 42.976562 C 36.535609 43.001562 37 42.536609 37 41.974609 L 37 41.943359 C 37 41.441359 36.631812 41.006078 36.132812 40.955078 C 28.218812 40.157078 16.370766 28.788078 16.009766 13.705078 C 15.998766 13.283078 15.733031 12.911344 15.332031 12.777344 L 2.3984375 8.4667969 C 2.3125625 8.4381719 2.2255078 8.421459 2.140625 8.4160156 z M 47.857422 8.4199219 C 47.772383 8.4254883 47.685859 8.4419531 47.599609 8.4707031 L 34.669922 12.779297 C 34.269922 12.909297 34.000234 13.280938 33.990234 13.710938 C 33.800234 21.490938 30.559141 28.280625 26.369141 33.140625 C 27.719141 34.550625 29.159844 35.749922 30.589844 36.669922 C 40.619844 29.519922 48.079922 17.799766 48.919922 9.5097656 C 48.981172 8.8797656 48.452695 8.380957 47.857422 8.4199219 z M 19.349609 39.050781 C 17.439609 40.130781 15.569141 40.790937 13.869141 40.960938 C 13.369141 41.010938 13 41.439453 13 41.939453 L 13 41.970703 C 13 42.540703 13.459297 43.000469 14.029297 42.980469 C 16.959297 42.850469 19.860156 42.160781 22.660156 41.050781 C 21.530156 40.450781 20.429609 39.770781 19.349609 39.050781 z"/></svg>